<?xml version="1.0" encoding="UTF-8" standalone="no"?>
<!-- Created with Inkscape (http://www.inkscape.org/) -->

<svg
   version="1.1"
   id="svg1"
   width="279.26199"
   height="376.85815"
   viewBox="0 0 279.262 376.85815"
   xmlns="http://www.w3.org/2000/svg"
   xmlns:svg="http://www.w3.org/2000/svg">
  <defs
     id="defs1" />
  <g
     id="g1"
     transform="translate(581.58087,-47.685737)">
    <path
       style="fill:#000000;stroke-width:1.15839"
       d="m -450.39482,424.12608 c -10.45178,-0.51595 -27.26421,-1.84962 -36.82306,-2.92102 -14.20568,-1.59227 -38.45028,-5.79845 -39.77911,-6.90127 -0.60197,-0.49958 -1.09449,-1.49 -1.09449,-2.20093 0,-3.04113 0.60668,-3.07954 34.0082,-2.15234 54.59717,1.51555 108.52473,0.0948 128.38148,-3.3824 19.94687,-3.49294 41.96413,-11.72996 51.5976,-19.30351 5.02423,-3.94987 5.2551,-4.0549 6.93584,-3.1554 3.64932,1.95304 0.2158,10.07613 -7.22663,17.09693 -5.48768,5.17679 -13.46681,9.70049 -22.3992,12.699 -21.83854,7.33095 -75.08916,12.12204 -113.60063,10.22094 z m -47.03214,-18.6824 c -54.10188,-1.95379 -80.12368,-8.81955 -83.69507,-22.08268 -3.12646,-11.61077 9.61429,-18.03918 41.58257,-20.9807 15.82,-1.45567 17.10836,-1.4286 18.07613,0.37967 1.5117,2.82465 -0.14059,4.0989 -7.11012,5.48301 -8.1207,1.61274 -21.89887,6.06859 -23.98268,7.75594 -1.5707,1.27188 -1.54773,1.29605 2.7633,2.90903 23.8687,8.93041 94.50609,12.2724 148.00444,7.00238 29.55204,-2.91112 58.10977,-8.42889 67.33551,-13.01018 3.20582,-1.59194 3.35644,-1.80694 3.18892,-4.55123 -0.33145,-5.42926 3.28922,-6.58485 7.08527,-2.26136 4.1121,4.68341 4.09668,10.56015 -0.039,14.87274 -7.94944,8.28943 -37.91948,17.02202 -72.72188,21.18951 -26.23345,3.1414 -67.37042,4.48982 -100.48735,3.29387 z m 43.34982,-35.09223 c -25.42222,-0.93289 -46.44151,-5.3382 -54.5736,-11.43777 -7.87842,-5.90933 -8.08699,-15.02623 -0.45898,-20.06154 3.32367,-2.19394 10.97026,-4.25026 14.64268,-3.93766 3.33646,0.28399 4.72426,2.10949 3.3169,4.36304 -0.53662,0.85926 -0.6999,1.82888 -0.36285,2.15471 1.82219,1.7616 19.17923,4.09662 35.8277,4.81985 12.23537,0.53154 17.14504,0.0948 38.60811,-3.43375 l 13.43321,-2.20847 9.39709,5.67643 c 11.19919,6.76501 11.97471,7.38076 11.97471,9.50754 0,1.86656 -2.16212,3.08545 -10.56392,5.9554 -12.26485,4.18949 -28.23781,7.31042 -41.08988,8.02845 -12.41596,0.69367 -14.93183,0.7653 -20.15117,0.57377 z m -25.77613,-41.2475 c -7.39801,-0.6722 -21.9614,-3.49452 -27.98553,-5.42346 -7.73223,-2.4759 -14.67008,-6.56426 -16.21757,-9.5568 -3.80051,-7.34936 1.766,-13.45652 16.11222,-17.67714 6.23006,-1.83286 8.00325,-1.54753 8.43674,1.35755 0.16838,1.12901 -0.57307,2.05058 -2.76172,3.43223 -3.18805,2.01251 -3.80426,3.6104 -1.70324,4.4167 7.52932,2.88955 34.41297,4.58582 54.08909,3.41288 18.35448,-1.09417 40.73793,-4.25901 53.09346,-7.507 2.69995,-0.70977 3.01807,-0.57535 9.94223,4.20108 3.93417,2.71387 7.89869,5.6047 8.81006,6.42407 1.90438,1.71216 2.13132,3.6049 0.586,4.88741 -2.57218,2.13473 -42.73131,9.25477 -64.39306,11.41661 -10.12919,1.01089 -30.09995,1.33449 -38.00868,0.61587 z m 115.99261,-3.75682 c -1.37441,-0.45726 -2.18337,-1.62594 -2.1981,-3.17551 -0.006,-0.66593 3.46679,-3.73891 7.90569,-6.99488 15.54466,-11.40224 29.14181,-26.30278 31.20158,-34.19252 2.91494,-11.16547 -6.55169,-19.08715 -25.69982,-21.50559 -5.15748,-0.65142 -7.07723,-1.19213 -7.58213,-2.13554 -1.59896,-2.98769 0.5818,-4.54782 11.30079,-8.08469 20.38486,-6.72626 36.45665,-1.40635 43.18719,14.29536 2.71466,6.33302 4.01302,14.22518 3.17359,19.29091 -2.07974,12.55081 -11.82538,23.1623 -29.25271,31.85167 -10.16762,5.06966 -29.49641,11.49574 -32.03608,10.65079 z M -495.68719,293.0473 c -31.17655,-2.14484 -50.1184,-8.12315 -54.93209,-17.33728 -1.52268,-2.91465 -1.29716,-7.73008 0.49806,-10.63484 3.81972,-6.1804 17.20597,-10.48993 39.7048,-12.7824 3.84803,-0.3921 10.70827,-0.71864 15.245,-0.72566 6.89216,-0.01 8.35986,0.18613 8.92533,1.19653 1.17129,2.09295 0.11889,3.89625 -2.71363,4.64969 -18.93643,5.0372 -30.29421,9.13542 -30.29421,10.93107 0,3.35092 50.00908,5.66437 84.18753,3.89454 22.59697,-1.1701 38.30771,-2.70032 51.3213,-4.99869 14.69199,-2.59481 16.06033,-2.72765 17.32068,-1.68165 2.91726,2.42111 -0.21089,5.3361 -11.79723,10.99338 -24.20349,11.81788 -55.42029,17.18934 -97.93674,16.85198 -8.91811,-0.0708 -17.70605,-0.23126 -19.5288,-0.35667 z m 67.39863,-28.19744 c -0.25887,-0.81567 0.66126,-4.70469 2.13454,-9.02165 3.2611,-9.55566 3.93951,-14.75704 2.40401,-18.43199 -0.62429,-1.49414 -3.83363,-6.26746 -7.13186,-10.60737 -10.80757,-14.22088 -14.30108,-23.52997 -14.33643,-38.20191 -0.0205,-8.52597 0.0645,-9.01299 2.41249,-13.81421 6.48947,-13.26996 23.36726,-26.85081 49.92555,-40.17302 6.17209,-3.09603 19.90032,-8.9802 20.95156,-8.9802 0.95617,0 2.91282,2.22176 2.91282,3.30746 0,0.54607 -5.2013,5.24496 -11.55844,10.44196 -22.9141,18.73243 -33.58202,30.48293 -35.90577,39.5495 -1.76089,6.87045 -0.48415,10.84477 7.33957,22.84743 5.24518,8.04679 7.41254,12.80266 8.92931,19.59359 1.03335,4.62653 1.09672,6.32372 0.39031,10.45161 -1.48888,8.70002 -5.76,16.4375 -13.68799,24.79701 -8.14214,8.58524 -13.68893,11.67839 -14.77967,8.24179 z m -23.94742,-13.3842 c -4.28069,-2.58427 -22.88118,-21.921 -27.89728,-29.00152 -14.93143,-21.07657 -18.68434,-41.3537 -10.62202,-57.39137 5.61482,-11.16906 15.33209,-22.97106 26.62947,-32.34246 3.09645,-2.56857 11.09814,-8.60129 17.78151,-13.40606 16.02725,-11.5222 21.1027,-15.58443 25.28909,-20.240732 8.45373,-9.402587 13.83171,-27.917385 12.62564,-43.466425 -0.4117,-5.307778 -0.30087,-6.454279 0.70463,-7.288755 2.16352,-1.795575 4.29076,0.0907 7.53799,6.683789 5.12797,10.411797 6.47993,16.301866 6.48677,28.26088 0.006,9.677742 -0.13447,10.703356 -2.28214,16.713188 -3.68589,10.314315 -8.08241,16.603815 -19.74529,28.246785 -5.7002,5.69045 -15.72967,14.73024 -22.28775,20.08839 -14.8445,12.1285 -22.88493,19.94988 -25.88214,25.17707 -2.10583,3.67256 -2.31807,4.62252 -2.32434,10.40426 -0.0138,13.43785 5.77855,34.75123 14.88518,54.76359 4.15087,9.12176 4.82839,11.67911 3.51384,13.26304 -1.17006,1.40982 -1.33926,1.39206 -4.41316,-0.46367 z"
       id="path1-8" />
  </g>
</svg>
