<?xml version="1.0" encoding="UTF-8" standalone="no"?>
<!-- Created with Inkscape (http://www.inkscape.org/) -->

<svg
   width="1920.2437"
   height="5999.9927"
   viewBox="0 0 1920.2437 5999.9927"
   version="1.1"
   id="svg1"
   xml:space="preserve"
   xmlns:xlink="http://www.w3.org/1999/xlink"
   xmlns="http://www.w3.org/2000/svg"
   xmlns:svg="http://www.w3.org/2000/svg"><defs
     id="defs1"><linearGradient
       id="linearGradient24"><stop
         style="stop-color:#1c1f2b;stop-opacity:0;"
         offset="0.0854701"
         id="stop25" /><stop
         style="stop-color:#1c1f2b;stop-opacity:1;"
         offset="0.15954417"
         id="stop24" /></linearGradient><clipPath
       clipPathUnits="userSpaceOnUse"
       id="clipPath7"><rect
         style="opacity:1;mix-blend-mode:normal;fill:#3a5fcd;fill-opacity:1;stroke:none;stroke-width:25.0216;stroke-opacity:1"
         id="rect8"
         width="2057.8242"
         height="1263.6923"
         x="-3671.27"
         y="1696.1963" /></clipPath><clipPath
       clipPathUnits="userSpaceOnUse"
       id="clipPath8"><rect
         style="opacity:1;mix-blend-mode:normal;fill:#3a5fcd;fill-opacity:1;stroke:none;stroke-width:25.0216;stroke-opacity:1"
         id="rect9"
         width="2057.8242"
         height="1263.6923"
         x="-3671.27"
         y="1696.1963" /></clipPath><linearGradient
       xlink:href="#linearGradient24"
       id="linearGradient25"
       x1="967.00977"
       y1="1431.774"
       x2="967.00977"
       y2="3560.6948"
       gradientUnits="userSpaceOnUse"
       gradientTransform="translate(14.9924,-1476.7513)"
       spreadMethod="pad" /><clipPath
       clipPathUnits="userSpaceOnUse"
       id="clipPath33"><rect
         style="fill:#3a5fcd;stroke-width:48.5501"
         id="rect34"
         width="1925.939"
         height="4077.8689"
         x="0"
         y="-494.68558"
         ry="0" /></clipPath><clipPath
       clipPathUnits="userSpaceOnUse"
       id="clipPath44"><rect
         style="fill:#3a5fcd;stroke-width:58.8909"
         id="rect45"
         width="1925.939"
         height="5999.9854"
         x="-3671.27"
         y="1696.2108"
         ry="0" /></clipPath></defs><g
     id="layer1"
     transform="translate(4964.9701,-217.22665)"><g
       id="g66"
       transform="translate(-4964.8485,217.21212)"><g
         id="g65"
         transform="translate(-2.8977178e-5,0.01450468)"><g
           id="g59"
           transform="translate(1117.091,1830.7879)"><g
             id="g60"><g
               id="g9"
               transform="matrix(0.99691634,0,0,1.0000115,2542.8581,-3527.0182)"
               clip-path="url(#clipPath44)"><rect
                 style="opacity:1;mix-blend-mode:normal;fill:#3a5fcd;fill-opacity:1;stroke:none;stroke-width:25.0216;stroke-opacity:1"
                 id="rect6"
                 width="2057.8242"
                 height="1263.6923"
                 x="-3671.27"
                 y="1696.1963"
                 clip-path="url(#clipPath8)" /><path
                 style="fill:#1c1f2b;fill-opacity:1;stroke-width:2.02457"
                 d="m -3678.3324,3732.4177 0.5519,-36.9483 37.4545,-1.0123 c 39.8403,-1.0768 44.1045,-2.1003 48.4453,-11.6275 1.4496,-3.1814 2.1687,-38.3619 2.1687,-106.0951 V 3475.399 l -6.8834,-6.8835 -6.8836,-6.8836 h -37.6569 -37.6569 v -234.9504 c 0,-209.1322 0.3477,-235.6228 3.1657,-241.0717 3.5388,-6.8438 1.8427,-7.2972 21.0929,5.6356 10.6441,7.151 15.1073,6.2144 23.2593,-4.8804 3.8864,-5.2892 8.5851,-13.5166 10.4414,-18.2831 l 3.3751,-8.6663 -6.375,-8.8769 c -3.8124,-5.309 -5.8755,-10.1775 -5.1327,-12.1133 0.6831,-1.7802 7.0759,-6.4994 14.2058,-10.4864 7.1301,-3.9875 13.8606,-8.9258 14.957,-10.9741 3.1199,-5.8299 2.4271,-26.7646 -1.0499,-31.729 -2.8646,-4.0896 -8.8124,-6.7065 -21.7579,-9.5727 -4.6469,-1.0287 -5.5675,-2.2966 -5.5675,-7.6651 0,-3.6619 2.312,-9.7688 5.368,-14.1787 4.9695,-7.1712 5.1883,-8.3474 2.9456,-15.833 -3.0647,-10.2286 -13.4221,-22.2052 -19.1523,-22.1468 -2.3901,0.025 -8.417,1.8913 -13.3934,4.1487 -4.9763,2.2572 -12.948,4.6388 -17.7149,5.292 l -8.6672,1.1881 v -66.0736 -66.0735 h 40.2553 c 38.1523,0 40.3088,-0.2056 41.2832,-3.932 1.4584,-5.5762 0.1925,-6.1908 -12.7458,-6.1908 h -11.5151 l -4.5176,-14.6781 c -2.4851,-8.0729 -4.8963,-15.5892 -5.3588,-16.7027 -0.5487,-1.3208 12.839,-1.8201 38.509,-1.4365 30.9218,0.4624 40.8622,-0.044 46.4099,-2.3616 14.0935,-5.8884 13.6262,-1.9254 12.9995,-110.267 l -0.5632,-97.3924 -4.6087,-4.6101 c -4.5861,-4.5874 -4.9423,-4.6132 -72.3782,-5.2177 l -67.7695,-0.6074 v -68.9026 c 0,-53.4509 0.5558,-68.7175 2.4787,-68.0766 1.363,0.4544 3.0927,3.829 3.8431,7.4989 2.2957,11.2241 8.003,15.1418 22.1782,15.2237 11.0464,0.065 12.8441,-0.5217 17.2238,-5.6092 2.6897,-3.1243 4.8904,-7.8899 4.8904,-10.5904 0,-6.413 8.5983,-9.0188 13.9066,-4.2149 6.5461,5.9241 15.6355,4.1218 25.6176,-5.0792 10.3428,-9.5337 11.9467,-17.6721 4.9503,-25.1194 -5.4893,-5.8429 -2.5421,-15.1141 4.8042,-15.1141 2.6611,0 7.239,-1.8883 10.1728,-4.196 4.6912,-3.69 5.3346,-5.6438 5.3346,-16.1966 0,-13.484 -4.2835,-20.0986 -13.0151,-20.0986 -8.9224,0 -14.4016,-9.0609 -8.4607,-13.9912 1.5504,-1.2868 3.924,-5.0075 5.2747,-8.2684 2.1315,-5.146 1.8796,-6.8607 -1.9089,-12.9904 -4.7527,-7.6903 -15.557,-15.3687 -21.6079,-15.3567 -2.0957,0 -6.7885,1.8233 -10.4282,4.0424 -8.2016,5.0004 -13.7321,2.4375 -15.5402,-7.2012 -1.6463,-8.7752 -7.3484,-13.3315 -18.2177,-14.5566 -15.308,-1.7253 -25.4226,5.3579 -25.4226,17.803 0,2.1746 -1.3666,3.9541 -3.037,3.9541 -2.6817,0 -3.0367,-27.3317 -3.0367,-233.8375 v -233.8374 h 231.6933 c 127.4313,0 232.1702,0.7714 232.7532,1.7145 0.5828,0.9433 -1.7327,4.3598 -5.1457,7.5922 -8.5732,8.1199 -10.089,13.1101 -7.7806,25.613 2.191,11.8666 10.1646,21.0763 19.9411,23.0315 3.8463,0.7693 6.3066,3.0341 7.9099,7.2815 2.1057,5.5789 1.7565,6.857 -3.6724,13.4434 -8.9716,10.8839 -7.2693,21.1515 5.4611,32.9337 12.3091,11.3922 20.92,12.6094 32.9391,4.6555 7.4394,-4.9231 8.1989,-5.0391 13.8556,-2.1138 4.7271,2.4444 6.2752,4.9109 7.3666,11.7356 0.7598,4.7525 2.8496,10.2628 4.6436,12.2452 8.1396,8.9939 32.5626,9.1147 43.1414,0.2134 4.373,-3.6795 5.9718,-6.9774 6.4366,-13.2779 0.5339,-7.239 1.4805,-8.7325 6.9398,-10.9498 5.7198,-2.3233 6.9617,-2.0953 13.0469,2.3941 13.42,9.9009 31.6116,4.5847 41.3863,-12.095 6.6464,-11.3412 6.3619,-16.8202 -1.2832,-24.708 -5.5061,-5.6808 -6.1509,-7.4656 -4.9708,-13.7558 1.2064,-6.4312 2.295,-7.467 9.8697,-9.3927 15.4252,-3.9214 21.6736,-11.9233 21.6736,-27.7556 0,-8.5126 -4.1021,-22.5921 -6.6318,-22.7618 -0.2499,-0.021 -4.0984,-1.3435 -8.5524,-2.9481 -7.3055,-2.6318 -0.4171,-2.9262 70.3536,-3.0062 l 78.4519,-0.088 0.1924,4.5552 c 0.1059,2.5053 0.3451,22.6375 0.5321,44.738 l 0.3401,40.1829 5.6546,4.8637 c 5.6434,4.8541 5.7537,4.8638 56.1559,4.8638 h 50.5011 v 17.7149 17.715 h -18.7302 c -18.6291,0 -18.7301,0.028 -18.7301,5.0614 v 5.0615 l 81.2219,0.5288 c 70.4337,0.4585 81.5593,0.1236 83.7614,-2.5308 2.04,-2.458 2.0218,-3.683 -0.094,-6.2307 -2.1073,-2.5391 -6.1947,-3.0438 -20.4984,-2.5308 l -17.8662,0.6406 v -17.715 -17.7149 h 52.3249 c 50.6047,0 52.4516,-0.1395 56.1817,-4.2573 3.5085,-3.8725 3.9124,-8.3523 4.4707,-49.6017 l 0.6137,-45.3446 h 77.8382 77.8382 v 4.8416 c 0,6.2936 -7.5897,8.3855 -15.4844,4.2679 -7.6103,-3.9689 -10.5549,-3.8089 -18.4457,1.0021 -13.3877,8.1626 -17.3889,21.7176 -9.1191,30.8939 5.2397,5.8143 0.7098,12.7881 -9.3517,14.397 -10.0108,1.6008 -12.3853,5.4413 -12.3853,20.0326 0,8.7919 0.9115,11.7716 4.6857,15.3171 2.5773,2.4213 7.1549,4.4023 10.173,4.4023 8.0268,0 10.9777,8.5369 5.4011,15.6261 -6.3695,8.0974 -5.165,14.1732 4.7808,24.1192 9.7221,9.7219 17.0438,11.3514 25.2331,5.6156 5.9183,-4.1453 14.5125,-2.2669 14.5125,3.172 0,15.4789 17.2655,22.9607 35.4515,15.3622 5.8729,-2.4538 7.1842,-4.2077 8.2828,-11.0779 1.5344,-9.5952 6.5928,-12.2818 13.9937,-7.4325 8.2294,5.392 17.5491,4.1153 24.639,-3.3749 11.4895,-12.139 12.8399,-19.5852 5.1409,-28.3522 -4.332,-4.933 -0.4092,-13.6576 6.1404,-13.6576 2.5601,0 6.6793,-1.4185 9.1541,-3.1519 3.909,-2.7379 4.4996,-4.9814 4.4996,-17.0938 0,-12.1126 -0.5906,-14.356 -4.4996,-17.094 -2.4748,-1.7334 -7.0127,-3.1515 -10.0844,-3.1515 -7.7543,0 -9.7262,-7.9034 -3.8391,-15.3877 6.5595,-8.3392 5.4289,-14.3361 -4.5931,-24.358 -9.5525,-9.5525 -17.0701,-11.3189 -24.4419,-5.7427 -6.9558,5.2609 -13.6974,3.3331 -16.1818,-4.627 l -1.4238,-4.5626 275.9861,0.5134 275.9859,0.5134 1.0121,30.7134 c 0.5569,16.8923 1.4678,31.088 2.0246,31.5459 9.3885,7.7215 7.5832,7.5883 102.6911,7.5883 h 91.6673 v 94.1808 94.1811 l -5.5675,-1.2391 c -3.0622,-0.6815 -7.0534,-1.637 -8.8694,-2.1232 -5.2875,-1.4156 -6.5756,-12.8245 -2.0125,-17.821 9.1013,-9.966 6.6558,-19.6628 -8.1567,-32.342 -9.9116,-8.4836 -17.3194,-9.3435 -25.8924,-3.0053 -8.8281,6.5269 -16.3625,3.2851 -19.2068,-8.2643 -3.0556,-12.4086 -10.2229,-17.2773 -25.4348,-17.2773 -14.4376,0 -21.6474,5.4243 -23.6219,17.7714 -1.803,11.2755 -8.4383,14.0521 -19.0229,7.9604 -12.0054,-6.9094 -17.2319,-5.9271 -28.5189,5.3597 -8.4037,8.404 -9.8317,10.9795 -9.82,17.7149 0,4.3349 1.7415,10.5029 3.8537,13.7071 3.0783,4.6689 3.4382,6.9797 1.8132,11.6412 -1.6747,4.8043 -3.1778,5.8157 -8.6422,5.8157 -3.6383,0 -9.0155,1.8881 -11.9495,4.196 -4.9434,3.8885 -5.3344,5.3468 -5.3344,19.8927 0,14.0888 0.5141,16.1795 5.0174,20.4103 2.7597,2.5924 8.3788,5.2601 12.4872,5.9276 5.8851,0.9567 7.8733,2.4249 9.3717,6.9192 1.5539,4.662 1.1214,6.5355 -2.3646,10.2462 -2.8047,2.9854 -4.266,7.196 -4.266,12.2919 0,6.5712 1.4966,9.2475 9.8335,17.5844 11.4401,11.4401 17.7326,12.5363 28.6904,4.9985 6.4336,-4.426 7.5002,-4.593 12.5965,-1.9727 4.4134,2.2692 5.5676,4.2832 5.5676,9.7166 0,5.2244 1.5391,8.1493 6.4737,12.3014 5.9131,4.9757 7.6665,5.3798 20.2561,4.6686 16.2973,-0.921 21.5846,-4.8327 23.2429,-17.1956 0.8559,-6.3827 2.2004,-8.4575 6.5416,-10.0962 4.5201,-1.7061 6.6584,-1.2439 12.3784,2.6752 3.8027,2.6058 8.2263,4.7378 9.8303,4.7378 5.5776,0 20.1548,-10.1298 24.3536,-16.9237 5.3275,-8.62 5.362,-15.5026 0.1113,-22.1778 -2.925,-3.7183 -3.7273,-6.7704 -2.7763,-10.5593 1.4123,-5.628 2.0225,-6.0102 12.4782,-7.8176 l 6.6,-1.141 -0.5263,92.5773 -0.5267,92.5777 -100.078,0.5252 c -89.5815,0.4703 -100.4639,0.8749 -103.7589,3.857 -3.4754,3.145 -3.6812,9.7005 -3.6812,117.2926 v 113.9611 l 4.885,5.6806 4.8851,5.6806 99.3801,0.5616 99.3802,0.5618 v 103.1972 c 0,113.1714 0.5249,108.6817 -11.5949,99.1482 -3.2226,-2.5348 -8.2132,-4.0491 -13.3452,-4.0491 -7.1854,0 -9.401,1.2487 -17.948,10.1159 -11.1952,11.615 -12.7627,19.9265 -5.4996,29.1598 3.1011,3.9423 3.8787,6.8889 2.8741,10.8909 -2.0341,8.1045 -4.8524,10.5704 -12.0815,10.5704 -4.3536,0 -8.0983,1.717 -11.3935,5.2241 -4.2737,4.5487 -4.9081,7.1436 -4.9081,20.0769 0,12.8658 0.6462,15.5416 4.8304,20.0004 3.0714,3.2727 8.0298,5.627 13.6159,6.4645 8.0072,1.2008 8.8987,1.9215 10.0647,8.137 1.0432,5.5617 0.2686,8.021 -4.2001,13.3316 -9.2479,10.9906 -4.1981,24.5715 13.6081,36.5983 10.2837,6.9456 18.6499,7.0731 28.4218,0.433 l 7.5559,-5.1343 v 210.4346 210.4344 l -10.6289,6.0511 c -12.9986,7.4 -19.6272,14.3323 -27.1489,28.3926 l -5.764,10.7743 -11.1282,0.5407 c -13.3969,0.6508 -25.3643,6.3828 -34.1007,16.3334 -10.1207,11.5266 -12.9367,20.2012 -11.9392,36.7782 1.3594,22.5869 12.576,38.395 35.1162,49.4894 8.5434,4.205 13.7065,5.0221 37.2499,5.8941 l 27.3315,1.0123 0.5311,74.4028 0.531,74.4028 h -84.9436 -84.944 l -5.6803,4.8857 -5.6805,4.8857 -0.4601,105.6289 c -0.5136,117.9705 -0.6024,117.0973 12.4695,122.5592 5.8272,2.4347 21.5647,2.964 88.1415,2.964 52.6821,0 81.0477,0.7084 81.0477,2.0245 0,1.3419 -117.7624,2.0246 -349.2376,2.0246 -346.857,0 -349.2378,-0.028 -349.2378,-4.0137 0,-2.2074 -3.9436,-8.1293 -8.7634,-13.1597 -9.6193,-10.039 -16.0287,-11.5665 -24.6984,-5.886 -7.6917,5.0397 -14.6563,2.3244 -16.2833,-6.3486 -1.8641,-9.9368 -9.169,-15.1325 -21.2748,-15.1325 -11.8855,0 -19.7212,5.8231 -21.8375,16.2286 -1.6691,8.2059 -7.5873,10.2629 -14.8638,5.166 -7.7903,-5.4566 -15.0215,-3.9535 -24.9333,5.1825 -5.8421,5.3854 -9.065,10.0639 -9.065,13.1597 v 4.8037 h -53.6512 -53.651 v -53.8538 -53.8534 l -6.8834,-6.8836 -6.8836,-6.8835 h -143.1282 c -129.9036,0 -143.6555,0.3114 -148.8356,3.3713 -9.7992,5.7886 -10.3947,9.592 -10.3135,65.8745 l 0.074,52.2282 h -67.7932 -67.7931 l 1.4584,-5.5676 c 1.5402,-5.8789 1.6566,-8.3983 1.0321,-22.3623 -0.5083,-11.3663 -6.6109,-17.5905 -19.0803,-19.4603 -8.0559,-1.2081 -9.6207,-2.2447 -11.492,-7.6124 -1.8931,-5.4303 -1.5307,-6.9694 2.8741,-12.2039 10.3066,-12.2486 8.5489,-22.3312 -6.2754,-35.9956 -10.3508,-9.5409 -18.4738,-10.5931 -31.2927,-4.0536 -7.4425,3.7971 -8.4704,3.8672 -14.0911,0.9605 -3.3746,-1.7452 -6.0633,-4.7739 -6.0633,-6.8305 0,-9.2172 -4.4994,-16.3034 -12.949,-20.3939 -19.8136,-9.5913 -42.2012,-1.3206 -45.0753,16.6525 -1.0114,6.3264 -2.5617,8.4993 -7.8682,11.0298 -6.209,2.961 -7.0325,2.8895 -13.6191,-1.1813 -9.6602,-5.9704 -17.5,-5.4805 -27.4317,1.714 -8.4148,6.0956 -16.5553,18.872 -16.5553,25.9833 0,2.1159 2.2371,7.1437 4.9711,11.1726 4.2305,6.2336 4.6579,8.2246 2.8678,13.3595 -2.1152,6.067 -3.3681,6.8187 -15.4062,9.2407 -3.6054,0.7254 -8.4831,3.7544 -10.8396,6.7309 -3.7746,4.7684 -4.1819,7.3992 -3.4246,22.1149 l 0.8601,16.7027 h -223.3974 -223.3972 z m 1708.1798,-8.1411 c 3.4172,-1.7294 5.6451,-5.2957 7.1376,-11.4257 2.716,-11.1547 7.5771,-13.4206 16.8073,-7.8342 4.3938,2.659 8.3762,3.5849 11.764,2.7345 6.4983,-1.6309 23.0972,-18.0836 23.0972,-22.8937 0,-1.9979 -2.1549,-6.8048 -4.7887,-10.6823 -5.8875,-8.668 -4.2438,-16.1603 3.5458,-16.1603 11.632,0 17.4396,-7.7502 17.4396,-23.274 0,-11.2505 -6.5536,-19.2419 -15.7795,-19.2419 -4.2919,0 -6.4631,-1.3653 -8.1866,-5.1484 -1.9846,-4.3557 -1.6838,-6.044 1.9525,-10.9625 5.5891,-7.5595 5.4367,-14.2152 -0.5098,-22.2929 -8.3594,-11.3548 -21.099,-15.3823 -29.2224,-9.2379 -8.1781,6.1857 -17.0895,1.453 -17.0895,-9.0761 0,-8.2991 -6.4859,-12.1175 -20.5834,-12.1175 -13.2385,0 -21.7298,5.3424 -22.6607,14.2576 -1.1018,10.5482 -6.0251,12.6091 -16.7554,7.0127 -9.5905,-5.0017 -14.7118,-3.7798 -24.2865,5.795 -7.0821,7.0821 -8.8441,10.2597 -8.8441,15.9485 0,3.9076 1.3665,8.2388 3.0369,9.625 6.3556,5.2746 2.9476,16.1965 -5.0538,16.1965 -8.4427,0 -14.26,5.8243 -15.5697,15.5888 -2.1036,15.6837 4.524,26.9271 15.8726,26.9271 8.5608,0 11.442,6.9236 5.9644,14.3328 -6.6604,9.0087 -5.5741,17.213 3.4784,26.2655 10.1355,10.1356 16.464,11.6605 25.4198,6.1255 5.8966,-3.6444 7.7536,-3.934 12.2101,-1.9035 4.0964,1.8666 5.2555,3.8531 5.2555,9.0087 0,9.5758 7.6358,15.015 21.0247,14.9763 5.6959,-0.02 12.5916,-1.1611 15.3237,-2.5436 z m -25.2151,-10.8772 c -2.076,-2.076 -2.8912,-5.0673 -2.1673,-7.9519 1.4745,-5.8749 -2.0406,-9.393 -12.9981,-13.0095 -8.0728,-2.6641 -9.1257,-2.5509 -16.6719,1.7922 l -8.0551,4.6358 -5.866,-5.6202 c -6.911,-6.6207 -7.4892,-12.889 -1.6748,-18.1508 3.3476,-3.0298 3.9288,-5.2325 2.887,-10.9428 -2.0788,-11.3945 -6.2102,-16.2601 -13.8063,-16.2601 -8.5479,0 -11.4932,-3.1132 -11.4932,-12.1474 0,-8.9808 2.9437,-12.1474 11.2919,-12.1474 7.409,0 9.4821,-2.057 12.9649,-12.8629 2.2654,-7.028 2.0909,-8.3744 -1.7607,-13.5838 -5.5365,-7.4887 -5.391,-11.0882 0.6942,-17.1736 6.0301,-6.03 9.8425,-6.231 17.3107,-0.9133 l 5.6961,4.056 9.76,-4.1835 c 10.4509,-4.48 13.419,-7.4019 11.8518,-11.6674 -2.1898,-5.9594 2.9138,-10.4822 11.8277,-10.4822 10.0557,0 13.4933,2.6716 13.4933,10.4864 0,4.518 1.581,6.4343 8.0177,9.718 9.5164,4.8549 16.8557,5.2353 20.3264,1.0536 3.692,-4.4486 10.8114,-3.7078 15.8436,1.6488 5.7472,6.1176 5.5621,11.0907 -0.6545,17.5793 l -5.0564,5.2778 4.4459,10.5233 c 3.8874,9.2011 5.1754,10.5235 10.251,10.5235 10.3322,0 13.637,3.197 13.637,13.1923 0,9.6286 0.9595,8.8455 -14.7597,12.0468 -3.4142,0.6952 -5.6146,3.6628 -8.3431,11.2503 -3.6772,10.2259 -3.6726,10.3415 0.5879,14.8765 6.9371,7.3842 4.9906,15.9293 -4.8166,21.1431 -3.1964,1.6995 -5.7549,1.1634 -12.1474,-2.5452 l -8.0983,-4.6981 -9.1105,4.3296 c -7.9101,3.7588 -9.1991,5.2604 -9.7821,11.3932 -0.3695,3.8852 -1.6198,8.2062 -2.7787,9.6028 -3.0553,3.6812 -16.9001,3.1573 -20.8464,-0.7892 z m 26.5928,-47.1214 c 31.4451,-19.1743 19.9801,-65.1451 -16.378,-65.6707 -9.2221,-0.1337 -12.4058,0.8512 -19.5958,6.0598 -4.7218,3.4203 -10.2362,9.2978 -12.2546,13.0613 -9.1283,17.0209 -0.2824,40.2166 18.6006,48.7732 6.4439,2.92 23.2623,1.6577 29.6278,-2.2236 z m -31.2136,-9.3982 c -6.4618,-4.5264 -10.5616,-13.5557 -10.5616,-23.2617 0,-16.4858 19.0436,-28.133 35.0581,-21.4418 8.3973,3.5086 15.5372,13.726 15.5483,22.25 0.02,8.551 -5.837,19.317 -12.3121,22.6654 -7.4892,3.8728 -22.0597,3.7615 -27.7327,-0.2119 z m -286.4509,-10.2109 c -0.6729,-0.6728 -2.419,-0.7447 -3.8806,-0.1601 -1.6149,0.6463 -1.1352,1.1261 1.2234,1.2233 2.1341,0.087 3.3297,-0.3907 2.6572,-1.0633 z m 26.3193,0 c -0.6727,-0.6728 -2.4189,-0.7447 -3.8805,-0.1601 -1.615,0.6463 -1.1354,1.1261 1.2232,1.2233 2.1341,0.087 3.33,-0.3907 2.6573,-1.0633 z m 54.6632,0 c -0.6726,-0.6728 -2.4188,-0.7447 -3.8804,-0.1601 -1.615,0.6463 -1.1354,1.1261 1.2232,1.2233 2.1341,0.087 3.3299,-0.3907 2.6572,-1.0633 z m 17.484,-7.0221 5.3346,-4.1961 v -111.551 c 0,-100.958 -0.3183,-111.9024 -3.3506,-115.2533 -3.1759,-3.5094 -9.7553,-3.7023 -126.1536,-3.7023 -120.7866,0 -122.8759,0.069 -127.2342,4.1279 l -4.4307,4.1281 v 111.2721 c 0,108.5729 0.099,111.3707 4.0493,115.3216 3.9588,3.9589 6.7483,4.0492 125.2498,4.0492 119.5504,0 121.2739,-0.057 126.5354,-4.1962 z m -241.1563,-7.3556 -4.5552,-0.8773 v -81.8542 -81.8541 h 120.4616 120.4617 v 81.7783 c 0,72.7035 -0.3553,81.9149 -3.2024,83.0073 -3.5756,1.3721 -225.994,1.1814 -233.1657,-0.2004 z m 108.3701,-43.6177 c 3.9268,-4.8004 26.96,-67.0004 26.3593,-71.1821 -0.3311,-2.3054 -2.0548,-4.4683 -3.8302,-4.8064 -3.437,-0.6543 -4.1238,0.8568 -22.0431,48.5056 -6.8808,18.2963 -9.0264,26.2868 -7.4753,27.8378 2.8279,2.828 4.4532,2.7453 6.9893,-0.3549 z m -29.9182,-6.6254 c 0,-1.4568 -5.8935,-7.8231 -13.0966,-14.1473 l -13.0969,-11.4983 13.185,-11.2556 c 13.1812,-11.2523 15.711,-16.9458 8.1739,-18.3972 -4.5628,-0.8789 -31.6076,25.089 -31.6076,30.3491 0,4.8241 29.5249,30.2529 33.3996,28.7661 1.6734,-0.6422 3.0426,-2.3597 3.0426,-3.8168 z m 113.3757,-25.4012 c 0,-5.1026 -31.3587,-34.5478 -35.2164,-33.0675 -5.8118,2.2303 -3.4949,6.2673 11.151,19.4298 l 14.4011,12.9426 -14.4011,11.7822 c -7.9207,6.4803 -14.4014,12.5447 -14.4014,13.4764 0,0.9319 1.5395,2.556 3.4212,3.609 2.6991,1.5103 6.7591,-0.9226 19.2334,-11.5253 8.6967,-7.3919 15.8122,-14.883 15.8122,-16.6472 z m -196.3828,-119.0931 c 0,-16.3964 0.5806,-20.252 3.2024,-21.258 1.7613,-0.676 54.528,-1.2289 117.2592,-1.2289 62.7311,0 115.4978,0.5529 117.2593,1.2289 2.6216,1.006 3.2024,4.8616 3.2024,21.258 v 20.029 h -120.4617 -120.4616 z m -940.7843,185.7127 c 6.3527,-3.3835 9.3455,-7.9628 9.4193,-14.4127 0.088,-7.8452 7.2296,-10.4219 14.5489,-5.2503 8.8378,6.2448 16.2989,4.9304 25.7684,-4.5393 9.6322,-9.6321 11.2132,-19.1554 4.3237,-26.0449 -5.7932,-5.7933 -2.4562,-14.2082 5.6343,-14.2082 3.5578,0 7.6184,-1.9664 10.5878,-5.1272 3.9845,-4.2415 4.7707,-7.0914 4.5505,-16.498 -0.3061,-13.0678 -4.1683,-18.4586 -14.7794,-20.6289 -8.7586,-1.7913 -11.2988,-8.2874 -5.9165,-15.13 6.3096,-8.0211 5.085,-16.1467 -3.8486,-25.5379 -8.7207,-9.1674 -17.8527,-10.8662 -26.3641,-4.9045 -5.7894,4.055 -14.4407,1.003 -14.4407,-5.0946 0,-10.7571 -8.33,-16.4055 -24.1943,-16.4055 -12.0766,0 -17.3926,4.1245 -19.4499,15.0901 -1.625,8.6634 -8.2285,11.3888 -15.4086,6.3596 -8.1893,-5.7358 -15.5111,-4.1064 -25.2332,5.6155 -9.5352,9.5354 -11.7306,18.6327 -5.7037,23.6348 4.5816,3.8024 3.0799,14.883 -2.1281,15.7016 -10.486,1.6478 -15.1988,5.049 -17.462,12.6031 -4.633,15.4638 2.4601,30.3219 14.4752,30.3219 8.826,0 11.7301,8.045 5.8,16.0662 -5.6686,7.6669 -3.7156,16.297 5.7729,25.5122 8.4547,8.211 16.1891,9.1075 24.9225,2.8884 4.9224,-3.5049 6.4101,-3.7353 9.9294,-1.5374 2.2766,1.4219 4.1393,4.2334 4.1393,6.2478 0,5.6779 5.6241,15.1986 9.5892,16.2326 7.1581,1.8668 21.1555,1.3423 25.4677,-0.9544 z m -22.5045,-10.1969 c -1.3363,-1.3363 -2.4295,-5.4684 -2.4295,-9.1827 0,-6.0933 -0.9063,-7.1414 -9.2784,-10.7302 -11.5457,-4.949 -11.8503,-4.9423 -19.1009,0.4183 -5.0386,3.7252 -6.7282,4.0384 -11.083,2.0543 -2.8257,-1.2874 -6.1859,-4.6411 -7.4668,-7.4522 -2.0092,-4.4105 -1.6723,-5.8101 2.4594,-10.2081 4.5166,-4.8076 4.6459,-5.6399 2.2762,-14.6581 -2.8139,-10.7083 -6.6892,-14.6226 -14.4764,-14.6226 -6.9636,0 -10.1476,-3.4754 -10.1098,-11.0339 0.042,-8.6313 1.8174,-10.5419 11.2525,-12.1182 7.6838,-1.2838 8.4964,-2.0718 11.9026,-11.5445 3.6134,-10.0479 3.6056,-10.235 -0.6545,-15.9971 -5.3272,-7.2055 -5.3349,-8.1951 -0.113,-14.8318 5.0601,-6.4331 10.243,-6.7548 17.8786,-1.1097 l 5.7143,4.2249 10.4004,-4.4741 c 9.4701,-4.074 10.4003,-5.0632 10.4003,-11.0628 0,-8.4279 3.874,-11.5573 13.3193,-10.7584 7.773,0.6576 9.9284,2.8575 11.8631,12.1092 0.8643,4.1325 3.2914,6.2245 10.3472,8.919 9.0584,3.4596 9.359,3.4411 17.3764,-1.0649 l 8.1589,-4.5855 5.9096,5.6619 c 7.0071,6.7131 7.4598,11.4008 1.6257,16.8359 -3.9954,3.7224 -4.1158,4.6909 -1.789,14.3904 2.6055,10.8606 6.6039,14.1694 17.1233,14.1694 5.1265,0 7.1881,3.4089 7.1399,11.8068 -0.046,8.0884 -2.5755,10.6551 -11.705,11.8796 -7.3347,0.9839 -8.6276,2.0021 -11.4269,8.9982 -4.1026,10.253 -3.9837,12.5041 0.8926,16.9173 5.3708,4.8604 5.122,11.4459 -0.6367,16.8559 -5.8974,5.5405 -10.1171,5.5534 -17.5551,0.055 l -5.8805,-4.3477 -9.7278,3.9795 c -9.0443,3.6999 -9.7742,4.5372 -10.3851,11.9135 -0.3613,4.3636 -1.7279,8.6152 -3.0367,9.4477 -3.7579,2.39 -16.5073,1.8227 -19.1838,-0.8538 z m 22.531,-44.8728 c 8.472,-3.5397 16.792,-13.4536 19.8464,-23.649 3.0662,-10.2335 -0.021,-21.4719 -8.5572,-31.1995 -7.6568,-8.7204 -17.4327,-12.0743 -29.8217,-10.2312 -7.5729,1.1269 -11.143,3.1553 -17.8604,10.1478 -13.7539,14.3169 -13.857,33.871 -0.2478,47.0242 11.0093,10.6409 23.5974,13.3577 36.6407,7.9077 z m -25.4412,-10.5304 c -15.4552,-8.3859 -15.202,-34.2736 0.4145,-42.3492 20.5009,-10.6017 41.4229,6.9596 34.7653,29.1808 -4.1834,13.9631 -21.6593,20.5045 -35.1798,13.1684 z m 726.2749,0.4902 c 0.7449,-10.2184 1.0527,-29.7079 0.6838,-43.3099 l -0.671,-24.7311 14.4974,15.6205 c 13.6636,14.722 14.6997,15.4244 18.0153,12.211 3.3296,-3.2272 3.0772,-3.9309 -4.7209,-13.1597 -4.5313,-5.3627 -13.2423,-14.6518 -19.3581,-20.6427 -8.9066,-8.7251 -12.0606,-10.6553 -15.8503,-9.7007 -5.6092,1.4131 -35.0993,36.076 -35.0993,41.256 0,8.0805 6.7805,4.3551 19.0328,-10.4571 6.9456,-8.3969 12.7931,-15.2681 12.9944,-15.2691 0.2005,0 0.1007,18.7662 -0.2212,41.7049 -0.5913,42.0126 0.3435,48.5099 6.631,46.097 1.8445,-0.7078 3.144,-6.9787 4.0661,-19.6191 z m -318.8563,-11.4929 c 0,-5.9749 -0.1713,-6.0741 -10.6291,-6.0927 l -10.6289,-0.02 -4.5553,-15.0041 c -2.5053,-8.2523 -4.5557,-15.76 -4.5561,-16.6836 -3e-4,-0.9238 19.9748,-1.6798 44.389,-1.6798 41.8808,0 44.7129,-0.2395 50.1086,-4.2386 10.2021,-7.5614 10.5433,-11.0098 10.6664,-107.8187 0.1254,-97.7126 -0.1484,-100.2605 -11.2137,-105.3028 -3.6148,-1.6471 -42.0509,-2.3053 -134.6365,-2.3053 -138.7872,0 -138.1055,-0.048 -143.4886,10.0106 -3.2127,6.0036 -2.7668,189.9902 0.4761,196.3 1.3754,2.6765 5.072,6.7762 8.2145,9.1105 5.394,4.0066 8.2004,4.2443 50.103,4.2443 24.4142,0 44.4003,0.4555 44.4141,1.0123 0.019,0.5568 -2.4738,8.073 -5.5279,16.7027 l -5.5525,15.6904 h -10.6637 c -10.4988,0 -10.6637,0.093 -10.6637,6.0737 v 6.0737 h 71.8722 71.8721 z m -105.5085,-22.6332 5.5644,-16.5593 29.1011,0.4126 c 16.0058,0.2267 29.3279,0.6393 29.6054,0.9165 0.2771,0.2771 2.7394,7.5433 5.4716,16.1469 l 4.9675,15.6428 h -40.137 -40.1372 z m -95.4437,-30.5116 c -3.5168,-2.6818 -4.3542,-7.314 -3.8438,-21.258 l 0.3147,-8.6044 h 133.8497 133.8501 l -0.8076,14.2908 c -0.5447,9.6392 -1.7723,14.901 -3.7715,16.1656 -4.8694,3.0797 -255.5261,2.5062 -259.5916,-0.594 z m -3.6473,-40.4914 c -0.065,-0.2783 -0.1923,-33.9696 -0.281,-74.8692 -0.1236,-56.3135 0.4456,-75.0959 2.3429,-77.3817 2.1705,-2.6156 19.6311,-3.0304 130.6927,-3.1048 114.3831,-0.078 128.5332,0.2598 131.3969,3.1237 2.8137,2.8135 3.2095,12.4289 3.2095,77.9738 v 74.7644 h -133.6214 c -73.4918,0 -133.6746,-0.2278 -133.7396,-0.5062 z m 474.879,94.6485 c 0,-3.8507 -1.6871,-4.0987 -34.4175,-5.0614 -36.1222,-1.0625 -40.5904,-2.1149 -51.0987,-12.0344 -16.8358,-15.8925 -14.7154,-44.9238 4.1295,-56.5411 3.5628,-2.1963 9.0073,-4.6247 12.0988,-5.3963 6.6962,-1.6715 9.5633,-6.3361 9.5633,-15.5594 0,-8.8048 7.5598,-23.4884 14.8216,-28.7875 4.5517,-3.3215 9.4845,-4.3115 24.2948,-4.876 l 18.5836,-0.7086 6.7583,-11.6651 c 20.6201,-35.5909 68.2076,-43.7418 95.5787,-16.3704 9.28,9.2797 16.1003,23.6807 16.1003,33.9955 0,8.4238 3.5496,12.1421 13.9805,14.6445 24.6971,5.9246 40.3746,25.008 40.5939,49.4129 0.136,15.0551 -3.8057,25.0464 -14.4906,36.7376 -13.2851,14.5358 -21.5224,17.5277 -46.5544,16.9092 -21.2144,-0.5242 -26.8459,1.3336 -21.9447,7.2392 2.04,2.4579 7.1719,3.1185 24.1078,3.1029 25.439,-0.024 36.2984,-3.9777 50.3913,-18.3493 13.8575,-14.1314 17.6924,-23.9826 17.6754,-45.4047 -0.021,-20.8182 -3.1717,-28.8934 -16.4896,-42.2037 -8.6345,-8.6291 -15.9588,-12.9661 -27.9191,-16.5318 -7.5673,-2.256 -8.1173,-2.9786 -10.6062,-13.9388 -4.8583,-21.3905 -16.5951,-36.2531 -36.2808,-45.9424 -8.3719,-4.1208 -12.9165,-4.8819 -29.1515,-4.8819 -17.0445,0 -20.5699,0.6562 -30.9774,5.7668 -13.1166,6.4408 -29.7521,21.8947 -33.62,31.2318 -2.4988,6.0334 -2.7969,6.1383 -19.4116,6.8345 -14.9239,0.6256 -17.8865,1.419 -25.6339,6.8653 -10.542,7.4105 -17.37,18.771 -19.1505,31.862 -1.2605,9.2661 -1.7373,9.8572 -11.2584,13.9529 -32.9703,14.1835 -36.9861,59.9448 -7.0526,80.3644 13.6491,9.311 18.2892,10.1493 53.9745,9.7533 31.932,-0.3545 33.4052,-0.5494 33.4052,-4.42 z m 899.7247,-108.8504 c 2.6765,-1.3755 6.596,-4.8318 8.7105,-7.681 3.6565,-4.9272 3.8454,-10.2004 3.8719,-108.0413 l 0.028,-102.8612 -4.568,-4.8622 c -2.5122,-2.6743 -7.8111,-5.8121 -11.7751,-6.9731 -4.7601,-1.394 -49.0247,-1.8982 -130.3669,-1.4843 l -123.1595,0.6263 -5.9064,6.6116 -5.9065,6.6119 v 103.8546 103.8544 l 5.5676,5.1875 c 3.062,2.8533 6.9341,5.685 8.6043,6.2928 1.6703,0.6078 58.6111,1.1635 126.5353,1.235 94.2511,0.099 124.651,-0.4624 128.3649,-2.371 z m -256.5199,-12.0162 c -1.8029,-1.8029 -2.4295,-21.9105 -2.4295,-77.9458 v -75.5162 h 130.5846 130.5844 v 75.5162 c 0,56.0353 -0.6268,76.1429 -2.4294,77.9458 -3.5104,3.5104 -252.7996,3.5104 -256.3101,0 z m -2.4295,-183.4258 c 0,-12.7323 0.8704,-20.7112 2.4295,-22.2701 3.5105,-3.5105 252.7997,-3.5105 256.3101,0 1.5591,1.5589 2.4294,9.5378 2.4294,22.2701 v 19.8408 h -130.5844 -130.5846 z m 32.049,1.8753 c 1.5295,-0.9698 2.404,-4.2363 2.0247,-7.5611 -0.5224,-4.5743 -1.8129,-5.9872 -5.9031,-6.4628 -7.3278,-0.8516 -11.2423,4.2587 -8.2661,10.7914 2.3036,5.0556 7.2091,6.3612 12.1445,3.2325 z m 35.6835,-1.995 c 2.4385,-7.6824 -3.5468,-13.8001 -11.1428,-11.389 -4.7525,1.5082 -6.4488,6.4364 -3.8723,11.2504 2.8035,5.2388 13.3654,5.3362 15.0151,0.1377 z m 33.092,-2.4829 c 0.8519,-7.328 -4.2587,-11.2425 -10.7912,-8.2661 -8.9425,4.0743 -4.8885,15.2618 5.1071,14.0938 3.7585,-0.4393 5.2336,-1.9515 5.6841,-5.8277 z m -1370.6419,119.7941 c 2.5561,-0.095 6.8836,-2.4078 9.6168,-5.141 l 4.9694,-4.9693 V 3241.226 3131.9876 l -6.2289,-5.2414 -6.2292,-5.2413 h -137.2909 c -132.1472,0 -137.4698,0.1448 -142.0703,3.8693 l -4.7797,3.8691 -0.557,110.8401 -0.5572,110.84 4.3493,4.6298 c 2.3922,2.5463 6.7425,4.9069 9.6677,5.246 4.4371,0.5145 254.7559,0.3061 269.11,-0.2241 z m -271.5384,-11.6301 c -0.75,-0.7499 -1.3637,-39.9318 -1.3637,-87.0704 v -85.7064 h 138.7045 138.7046 l -0.528,86.55 -0.5279,86.5503 -136.8129,0.5201 c -75.247,0.2861 -137.4265,-0.093 -138.1766,-0.8436 z m 131.9345,-40.6739 c 2.7368,-5.2589 18.5443,-72.057 18.5443,-78.3631 0,-4.4081 -0.82,-5.3101 -4.3497,-4.785 -3.7397,0.5563 -4.995,3.4848 -8.9543,20.8926 -2.5331,11.1351 -6.8482,29.3562 -9.5896,40.4913 -3.4356,13.955 -4.3506,21.032 -2.9448,22.7765 2.8111,3.4882 5.1183,3.1682 7.2941,-1.0123 z m 54.1649,-22.0909 c 9.36,-7.4175 17.018,-14.5069 17.018,-15.7539 0,-2.0594 -14.735,-17.0594 -28.8917,-29.4113 -5.3392,-4.6586 -5.7779,-4.7236 -9.1106,-1.3507 -3.3252,3.3652 -2.7878,4.1994 10.6708,16.5682 l 14.1718,13.025 -6.0737,5.3254 c -21.2534,18.6358 -22.9655,20.6766 -19.908,23.7339 2.6464,2.6468 5.3185,1.181 22.1234,-12.1366 z m -72.6393,6.2418 c 0.2962,-2.6426 -3.4184,-6.8132 -11.5796,-13.0009 -6.6088,-5.0109 -12.0132,-9.5662 -12.0098,-10.123 0,-0.5567 6.4018,-5.8888 14.219,-11.8489 13.7844,-10.5099 17.1941,-16.6956 9.9235,-18.0027 -4.3796,-0.7873 -36.4418,25.1591 -36.3069,29.3815 0.1307,4.1107 29.6441,29.3509 33.0205,28.2404 1.2638,-0.4158 2.4937,-2.5065 2.7333,-4.6464 z m -114.8238,-141.3132 c 0,-10.1291 0.8867,-15.6724 2.7554,-17.2232 2.0013,-1.6608 39.8276,-2.1444 138.1766,-1.7665 l 135.4212,0.5209 0.5879,16.7026 0.5883,16.7026 h -138.7649 -138.7645 z m 274.7927,11.6886 c -0.6727,-0.6727 -2.419,-0.7446 -3.8804,-0.1607 -1.6151,0.6462 -1.1354,1.126 1.2232,1.2232 2.1341,0.086 3.3297,-0.3909 2.6572,-1.0634 z m 1065.3074,143.4491 c 2.5248,-2.0637 4.8346,-6.9248 5.5315,-11.6413 1.9639,-13.2907 10.1597,-16.7685 20.8651,-8.8538 8.617,6.3709 17.7697,3.9872 28.2199,-7.3501 10.4332,-11.3184 11.6352,-20.3222 3.8355,-28.7308 -6.6384,-7.157 -3.6577,-13.7914 7.4529,-16.5892 12.0237,-3.0278 16.2528,-9.474 16.2528,-24.7742 0,-14.142 -5.5139,-21.3933 -17.7558,-23.3508 -11.2269,-1.7954 -13.6385,-8.6665 -6.6042,-18.8171 2.8197,-4.0685 5.1266,-9.0632 5.1266,-11.0989 0,-9.6165 -17.7522,-27.472 -27.2954,-27.4543 -2.247,0 -7.1676,1.8867 -10.9346,4.1831 -5.7504,3.5058 -7.7427,3.8055 -12.4185,1.8689 -4.3258,-1.7919 -5.8549,-4.0929 -6.8483,-10.306 -1.7248,-10.7862 -10.0878,-15.9811 -25.7435,-15.9917 -14.3852,0 -21.4831,4.9248 -23.2841,16.1873 -0.9613,6.0113 -2.5267,8.3333 -6.817,10.1104 -4.6757,1.9366 -6.668,1.6369 -12.4185,-1.8689 -3.7669,-2.2964 -8.8964,-4.1789 -11.3986,-4.1831 -5.9114,0 -20.5839,13.2831 -24.2023,21.9267 -2.5685,6.1356 -2.425,7.5775 1.5768,15.8439 5.86,12.1049 3.5489,17.7997 -7.9705,19.6416 -11.4828,1.8363 -14.4563,6.9539 -14.4563,24.8786 0,13.3471 0.4531,14.9437 5.3342,18.7831 2.934,2.3077 7.9887,4.196 11.2329,4.196 4.7253,0 6.4432,1.2958 8.6375,6.5147 2.4496,5.8257 2.3325,7.0321 -1.1099,11.4079 -2.1345,2.7138 -3.8492,8.0832 -3.8492,12.0537 0,5.8471 1.6772,8.7669 9.146,15.9236 10.2545,9.8253 19.0534,11.4696 29.2246,5.4612 4.2529,-2.5121 6.9917,-2.8377 11.4475,-1.3611 5.0379,1.6696 5.9442,3.1148 6.4772,10.3305 0.9143,12.3784 7.2084,16.603 24.7362,16.603 10.0223,0 14.8323,-0.9463 18.0095,-3.5429 z m -29.8007,-9.0093 c -1.3362,-1.3362 -2.4436,-5.2083 -2.4605,-8.6045 -0.042,-8.5004 -1.4385,-10.0567 -13.7473,-15.329 l -10.7412,-4.6009 -5.8795,4.3468 c -7.9459,5.8747 -14.3357,5.4665 -20.8486,-1.3314 -6.5848,-6.8731 -6.8146,-11.0002 -1.0629,-19.0779 4.3292,-6.0797 4.3377,-6.2648 0.7633,-16.78 -3.5358,-10.4023 -3.8094,-10.6541 -12.6518,-11.6509 -11.6944,-1.3182 -13.4182,-3.305 -13.598,-15.6725 -0.1678,-11.5298 2.0721,-14.0676 12.4579,-14.1167 7.4244,-0.034 10.8899,-4.1526 14.8336,-17.623 2.3435,-8.005 2.1797,-8.8416 -2.9185,-14.9005 -5.3842,-6.3988 -5.3897,-6.4393 -1.7005,-12.756 2.0352,-3.4851 6.1136,-7.6909 9.0622,-9.346 4.9436,-2.7747 5.8373,-2.6578 11.4581,1.4978 7.2732,5.3773 11.5404,5.6018 22.5733,1.1871 8.7281,-3.492 12.0308,-8.6816 12.0308,-18.904 0,-5.1345 0.8731,-5.9116 7.9943,-7.1146 11.9809,-2.0241 19.1751,2.1157 19.9564,11.4839 0.7072,8.4789 1.9078,9.719 14.8882,15.3771 l 9.4335,4.1123 7.1618,-4.8665 c 3.9388,-2.6765 8.4821,-4.8665 10.0961,-4.8665 2.9783,0 15.5015,12.9167 15.5015,15.9886 0,0.9216 -2.65,5.01 -5.8884,9.0854 l -5.8887,7.4098 4.48,11.5958 c 4.4463,11.5088 4.5477,11.6005 13.4808,12.197 10.4679,0.6992 14.062,4.3006 14.062,14.0908 0,9.3996 -3.2492,14.6644 -9.05,14.6644 -10.2742,0 -14.71,3.4181 -18.2439,14.0583 l -3.41,10.2658 5.2292,6.2145 c 6.8004,8.0819 6.5936,11.8375 -1.0851,19.6912 -7.6149,7.7889 -8.8748,7.8797 -18.5042,1.3364 l -7.537,-5.1216 -11.6602,4.6154 c -11.2267,4.4442 -11.6845,4.9153 -12.3171,12.6882 -0.3613,4.4399 -1.6117,9.2228 -2.7787,10.6289 -2.697,3.2498 -20.2731,3.3448 -23.4909,0.1272 z m 25.2764,-52.3626 c 13.3953,-5.0613 24.9629,-22.1369 24.8882,-36.7389 -0.1862,-36.3799 -44.2311,-53.3534 -69.1681,-26.6554 -22.4222,24.0057 -4.1216,65.1826 29.0957,65.4664 5.2166,0.044 12.0496,-0.888 15.1842,-2.0721 z m -26.6937,-9.9012 c -14.7573,-6.1039 -21.6637,-28.1914 -13.1706,-42.1213 6.2753,-10.2923 15.4028,-15.0417 26.9873,-14.0426 30.2798,2.6111 38.0281,41.2323 11.0846,55.251 -5.9665,3.1044 -18.4929,3.5636 -24.9013,0.9129 z m -192.5335,15.3052 c 13.9673,-5.8358 13.3595,-0.2784 13.3595,-122.1065 v -109.8564 l -5.907,-6.6118 -5.9068,-6.6116 -131.7812,-0.5493 c -115.3573,-0.4807 -132.5313,-0.1625 -137.8029,2.5649 -12.3542,6.3888 -12.1673,4.5102 -12.1347,121.8885 0.023,81.3781 0.6339,108.1046 2.5589,111.9578 1.3911,2.7837 5.7051,6.6544 9.5869,8.6012 6.495,3.2575 17.1982,3.54 134.1645,3.5431 104.1292,0 128.3279,-0.5073 133.8628,-2.8199 z m -267.9842,-13.2405 c -1.3459,-2.5147 -2.0958,-33.3028 -2.0958,-86.0441 v -82.128 h 136.6584 136.6581 v 83.6147 c 0,62.3341 -0.6183,84.2328 -2.4294,86.0439 -1.8399,1.8401 -34.4917,2.4296 -134.5623,2.4296 -128.5641,0 -132.1897,-0.1059 -134.229,-3.9161 z m 129.0125,-44.1673 c 14.7414,-40.4855 24.9085,-72.169 23.9555,-74.6521 -2.5521,-6.6512 -7.839,-1.5283 -12.7939,12.3966 -2.7735,7.7946 -9.0771,25.3638 -14.0081,39.0426 -4.9307,13.6788 -8.4216,25.7502 -7.7568,26.8256 2.4621,3.9837 8.5986,1.8928 10.6033,-3.6127 z m 65.2747,-14.9118 c 19.0459,-15.5236 19.894,-16.9549 13.8605,-23.3922 -10.4906,-11.1932 -32.1508,-27.395 -35.1075,-26.2604 -5.2209,2.0034 -3.5133,4.6423 12.0582,18.6338 l 15.1055,13.5733 -15.0038,11.9766 c -9.8753,7.8831 -14.6185,12.9805 -13.8767,14.9133 2.0537,5.3519 7.6174,3.0638 22.9638,-9.4444 z m -97.7598,7.0674 c 0.4118,-1.2523 -5.6666,-7.0326 -13.5073,-12.8451 -7.8407,-5.8127 -14.2559,-10.8273 -14.2559,-11.1438 0,-0.3165 6.8327,-5.7182 15.1841,-12.0042 15.423,-11.6082 18.9632,-17.4057 10.6284,-17.4057 -5.2129,0 -39.9845,25.3004 -39.9845,29.0934 0,1.3772 7.4689,8.189 16.5973,15.1374 15.7813,12.0123 23.4856,14.7999 25.3379,9.168 z m -97.889,-129.315 c -1.9282,-5.0248 0.1325,-35.0864 2.5716,-37.5258 3.1627,-3.1627 258.314,-4.1266 264.6007,-0.9996 3.9952,1.9873 4.4509,3.9887 4.9772,21.8724 l 0.5794,19.6848 h -135.7827 c -118.7246,0 -135.9291,-0.3807 -136.9462,-3.0318 z m 40.5522,-15.6954 c 4.4005,-7.0196 -5.5518,-14.9102 -12.0275,-9.5361 -3.6033,2.9907 -3.8703,11.34 -0.4087,12.788 4.4772,1.8729 10.1544,0.3883 12.4362,-3.2519 z m 33.542,1.6156 c 5.3782,-6.4803 -2.5211,-16.4351 -9.536,-12.0172 -7.0097,4.4144 -4.5124,14.9568 3.543,14.9568 1.9543,0 4.6513,-1.3228 5.993,-2.9396 z m -313.4058,154.7821 c 2.2215,0 6.7022,-2.6631 9.9573,-5.9179 4.5679,-4.5681 5.9179,-7.7651 5.9179,-14.015 0,-7.4402 0.568,-8.2845 7.0028,-10.4082 6.2705,-2.0693 7.8015,-1.7682 14.6418,2.8799 9.8971,6.7252 16.359,6.5529 26.3751,-0.7027 16.8527,-12.208 21.4934,-26.8519 12.0052,-37.8824 -4.0817,-4.7453 -4.4766,-6.4621 -2.768,-12.0298 1.728,-5.6297 3.1036,-6.6436 10.3287,-7.6125 5.8837,-0.7889 9.9732,-2.9506 13.9033,-7.3484 4.9596,-5.5504 5.5675,-7.7912 5.5675,-20.5264 0,-12.904 -0.5434,-14.8391 -5.5804,-19.8761 -3.44,-3.4399 -8.7988,-6.095 -13.9711,-6.9221 -7.0989,-1.135 -8.7362,-2.3326 -10.6349,-7.7794 -1.9263,-5.526 -1.6739,-7.0447 1.7828,-10.7243 6.8953,-7.3396 8.9072,-16.0241 5.3194,-22.9623 -4.3685,-8.4476 -15.0502,-18.6723 -22.9598,-21.977 -7.1367,-2.982 -10.5549,-2.0442 -20.4048,5.5976 -4.3753,3.3944 -5.1665,3.4228 -11.4761,0.414 -5.6868,-2.7117 -7.049,-4.7193 -8.4659,-12.4752 -2.3155,-12.6735 -10.8218,-18.5077 -26.985,-18.5077 -16.2486,0 -24.5649,5.7762 -27.3772,19.0153 -1.5889,7.4802 -3.3737,10.4281 -7.6799,12.6842 -5.1206,2.6831 -6.2259,2.5589 -12.6686,-1.4227 -3.8821,-2.3994 -10.4048,-4.3624 -14.495,-4.3624 -6.3695,0 -8.9757,1.6015 -18.1609,11.1595 -9.159,9.5311 -10.722,12.2933 -10.7105,18.9296 0,4.2737 1.7415,10.3918 3.8537,13.5958 3.0804,4.6723 3.4388,6.9783 1.8104,11.6493 -1.6378,4.6985 -3.5702,6.0702 -9.9977,7.0982 -4.3821,0.7006 -10.2466,3.0667 -13.0322,5.2578 -4.8265,3.7965 -5.0372,4.8435 -4.4849,22.2947 0.5441,17.1991 0.9097,18.5572 6.0157,22.3631 2.9902,2.2284 8.8371,4.6047 12.9936,5.2804 5.9223,0.9627 7.9584,2.4331 9.4135,6.798 1.5416,4.6249 0.9688,6.625 -3.3768,11.7892 -2.8783,3.4207 -5.2298,8.6552 -5.2258,11.6319 0.021,10.5621 12.9584,25.2575 26.924,30.567 5.6993,2.1669 13.4296,-0.028 21.9247,-6.2256 2.5691,-1.8742 4.7078,-1.8286 9.6168,0.2049 5.5109,2.2828 6.3132,3.5985 6.3132,10.3546 0,11.3264 6.8893,18.4843 19.4573,20.2162 5.4443,0.7503 11.1122,1.0339 12.5953,0.6304 1.483,-0.4034 4.5139,-0.7335 6.7355,-0.7335 z m -23.0367,-12.2754 c -2.1816,-1.2716 -3.9788,-5.773 -4.8115,-12.0505 -1.5285,-11.5229 -2.2266,-12.2576 -16.3653,-17.2266 l -10.4867,-3.6856 -7.0931,5.4104 c -9.0688,6.9168 -11.7107,6.8022 -20.4706,-0.8891 -9.9535,-8.7394 -10.8451,-14.0357 -3.8964,-23.1461 l 5.6477,-7.4046 -3.9385,-11.4375 c -3.9195,-11.3806 -3.9854,-11.4427 -13.3258,-12.5172 -13.5385,-1.5575 -15.9202,-4.2924 -15.9202,-18.282 0,-13.3201 1.0133,-14.4726 14.0787,-16.0157 8.9494,-1.0568 9.0536,-1.1603 13.8641,-13.7734 l 4.8468,-12.7088 -5.2597,-6.8956 c -6.9151,-9.0662 -6.6359,-14.3785 1.1368,-21.6394 10.8483,-10.1339 12.4526,-10.3929 21.9131,-3.5399 l 8.5262,6.1767 11.0908,-4.5016 c 14.6211,-5.9343 16.8596,-8.4949 16.8596,-19.2864 0,-7.8152 0.6916,-9.2789 5.1931,-10.9904 7.3372,-2.7895 22.2774,-2.4524 24.654,0.5563 1.0996,1.3919 2.5057,6.5129 3.1249,11.3802 1.3597,10.686 1.5559,10.8986 15.8964,17.2355 l 11.4138,5.0435 8.2889,-6.0957 c 9.5977,-7.0583 13.7563,-6.5614 21.4332,2.5622 6.6138,7.8604 6.5515,15.2611 -0.1882,22.2956 l -5.3382,5.5719 4.832,13.7724 4.832,13.7724 10.8993,1.33 c 5.9948,0.7317 11.6748,2.5539 12.6225,4.0492 2.2461,3.5438 2.2256,20.147 -0.028,23.7064 -0.9639,1.5215 -6.6439,3.861 -12.6226,5.1988 -11.9304,2.6696 -15.4692,6.9758 -17.3683,21.1342 -0.7673,5.721 -0.039,8.2235 3.2614,11.2109 6.5735,5.9486 5.59,15.2961 -2.4269,23.0664 -8.2841,8.0291 -11.9484,8.095 -21.6771,0.3896 l -7.678,-6.0811 -13.3653,5.9966 c -13.2767,5.9569 -13.365,6.0503 -13.365,14.1792 0,11.1192 -5.3363,16.301 -16.7026,16.2198 -4.7324,-0.035 -10.1715,-0.9747 -12.0865,-2.091 z m 30.8136,-61.3244 c 10.8331,-5.5299 21.276,-18.4424 24.4511,-30.2332 3.3442,-12.4198 -0.4001,-26.9791 -9.7463,-37.898 -18.5052,-21.6192 -49.3559,-21.637 -67.8431,-0.039 -30.8261,36.0136 11.0047,89.6773 53.1383,68.17 z m -36.4625,-11.3205 c -10.6002,-5.607 -16.8669,-18.0728 -15.7652,-31.3597 1.1207,-13.5145 7.4706,-22.6514 19.4144,-27.9346 23.4481,-10.3724 49.3218,8.7062 46.4433,34.2455 -2.6313,23.3454 -28.6837,36.3726 -50.0925,25.0488 z m 1282.3301,32.2364 c 19.5052,-0.06 23.8241,-3.3421 25.1303,-19.0939 1.2922,-15.5827 5.6746,-17.4299 18.367,-7.7414 6.9915,5.3366 10.2383,6.6119 14.2827,5.6096 11.0901,-2.748 32.5662,-23.4928 32.5662,-31.4574 0,-1.8436 -2.808,-7.2284 -6.2398,-11.9661 -4.5311,-6.2549 -5.9033,-9.9562 -5.01,-13.515 1.9375,-7.7195 8.4884,-13.1089 14.5893,-12.0026 7.6916,1.3947 18.6084,-3.8313 20.9681,-10.038 1.1064,-2.9101 2.0119,-12.8528 2.0119,-22.0952 0,-21.9951 -3.6129,-27.4726 -18.1201,-27.4726 -11.1056,0 -12.652,-1.3912 -16.2223,-14.5915 -2.5214,-9.322 -2.4398,-9.7038 3.7349,-17.5002 3.4719,-4.3835 6.3127,-10.2191 6.3127,-12.9679 0,-6.6854 -9.7802,-19.1336 -23.1499,-29.4653 -7.9923,-6.1765 -16.3452,-4.362 -24.7264,5.3712 l -6.3725,7.4003 -9.3178,-4.5269 c -8.9991,-4.3721 -9.3178,-4.835 -9.3178,-13.532 0,-22.6612 -6.0513,-25.9945 -45.5783,-25.1055 -27.6683,0.6222 -29.2652,0.8861 -34.3573,5.6753 -4.9917,4.6949 -5.3057,6.0455 -4.8068,20.6777 0.2936,8.6102 0.1219,15.9832 -0.3841,16.3846 -0.5047,0.4012 -3.9853,2.8504 -7.7348,5.4423 l -6.8171,4.7126 -10.5097,-5.685 c -7.7084,-4.1699 -11.9729,-5.318 -15.9992,-4.3074 -9.4999,2.3842 -33.7535,39.0095 -33.7535,50.9709 0,5.3402 5.9405,12.4974 16.8243,20.2706 5.0836,3.6309 5.846,5.7062 7.1639,19.5043 l 1.4752,15.4412 -9.1887,6.7847 c -13.5691,10.0191 -13.3335,14.6923 1.913,37.911 6.7729,10.3148 14.6951,20.9603 17.6045,23.6569 7.8704,7.2939 17.4979,6.1558 27.9815,-3.3073 3.9288,-3.5464 4.4926,-3.441 18.9456,3.5433 l 14.8961,7.1988 -1.2137,7.5904 c -1.7275,10.8042 1.945,19.9937 8.5718,21.4478 2.951,0.6474 6.2763,1.5147 7.3898,1.9274 1.1135,0.4129 4.6439,0.3331 7.8453,-0.178 3.2013,-0.5102 12.3118,-0.948 20.2457,-0.9726 z m -28.091,-10.0424 c -3.3027,-1.1698 -4.2357,-3.7847 -5.0614,-14.1904 l -1.0123,-12.7563 -19.5147,-9.985 -19.5146,-9.9851 -10.1178,7.2692 c -5.5647,3.9977 -11.3599,6.7867 -12.8782,6.1973 -2.6226,-1.0176 -20.5758,-26.7364 -26.0906,-37.3761 -2.3589,-4.5508 -2.0839,-5.3575 3.1048,-9.1106 3.1311,-2.2648 7.9012,-5.9594 10.6003,-8.2103 l 4.9074,-4.0925 -2.4836,-20.4905 -2.4833,-20.4904 -9.836,-7.3431 c -13.0949,-9.7763 -12.9342,-13.8084 1.4037,-35.2238 12.4402,-18.5813 13.0509,-18.7881 27.1908,-9.2095 3.8776,2.6265 8.0229,4.7754 9.2117,4.7754 1.1891,0 7.8685,-4.1523 14.8433,-9.2275 l 12.6812,-9.2275 -1.3849,-15.8779 c -1.7613,-20.1913 -1.5411,-20.3303 32.2303,-20.3303 29.7537,0 31.6584,0.9732 31.6584,16.1754 0,5.397 0.5694,11.2964 1.2652,13.1098 1.2349,3.2181 25.0844,15.2553 30.2257,15.2553 1.4225,0 5.4728,-3.6443 9.0006,-8.0983 3.5275,-4.4541 8.0347,-8.0982 10.0159,-8.0982 3.3188,0 22.377,18.2847 22.377,21.4686 0,0.7684 -3.1657,5.2602 -7.0351,9.9823 l -7.0352,8.5854 4.8166,16.5675 c 2.6493,9.1119 5.3786,17.1292 6.0654,17.8162 0.687,0.6868 6.6687,1.6408 13.2933,2.1201 13.9971,1.0125 13.888,0.8287 13.4507,22.663 l -0.3041,15.1834 -13.1444,1.5634 c -15.2668,1.8157 -17.6437,3.8995 -23.245,20.378 l -3.8857,11.4316 6.6879,6.9 c 4.8315,4.9848 6.3291,8.0311 5.395,10.9737 -1.3904,4.3814 -17.6029,18.6022 -21.2075,18.6022 -1.2013,0 -5.8256,-3.2898 -10.2762,-7.3106 l -8.092,-7.3107 -8.6163,3.4419 c -12.5985,5.0326 -13.6781,6.4742 -13.6781,18.2654 0,6.09 -1.0821,11.4986 -2.5306,12.6486 -3.1438,2.4964 -35.4825,4.5242 -40.9976,2.5709 z m 40.6386,-71.2229 c 18.282,-9.4979 29.3293,-30.9514 26.309,-51.0912 -1.9899,-13.2699 -12.6191,-29.3883 -24.0156,-36.4178 -34.7379,-21.4269 -79.883,6.3317 -75.7306,46.5649 3.8463,37.2682 40.8272,57.8864 73.4372,40.9441 z m -37.1737,-6.0065 c -17.9543,-5.178 -30.3691,-29.8297 -25.0459,-49.7325 5.4713,-20.4562 19.3911,-30.0274 41.6122,-28.6125 10.9733,0.6987 14.5042,1.8786 20.7485,6.9326 19.0533,15.421 21.7734,41.1475 6.2238,58.8577 -11.3085,12.8796 -26.8611,17.3644 -43.5386,12.5547 z m -291.9655,-2.7761 c 0,-4.7538 -0.6462,-5.0627 -10.629,-5.0805 l -10.6289,-0.019 -4.761,-15.6712 c -2.6183,-8.6195 -4.4406,-16.1273 -4.0492,-16.6839 0.3915,-0.5569 19.5456,-1.0124 42.565,-1.0124 39.3045,0 42.2013,-0.2578 47.5773,-4.2385 3.1482,-2.3314 6.8202,-7.3421 8.1596,-11.1351 3.2291,-9.1439 3.5037,-182.9488 0.3036,-192.1285 -4.3282,-12.4157 -1.4848,-12.1633 -136.9727,-12.1633 h -123.2996 l -6.8794,4.6357 -6.8792,4.6355 -0.5254,98.5639 -0.5254,98.5638 5.8921,6.5943 5.892,6.5945 43.7237,0.039 c 27.763,0.025 43.7292,0.7778 43.7388,2.0633 0,1.1135 -2.3888,8.6298 -5.3271,16.7028 l -5.3425,14.678 h -11.8763 c -10.1666,0 -11.8761,0.5345 -11.8761,3.7118 0,2.0416 0.6075,4.3191 1.3498,5.0614 0.7423,0.7423 32.6292,1.3498 70.8599,1.3498 h 69.51 z m -105.8243,-9.2631 c 0.6043,-2.3109 3.0258,-9.8269 5.3807,-16.7026 l 4.282,-12.5012 h 27.1449 27.1449 l 5.6122,16.7027 5.6126,16.7028 h -38.138 c -37.6023,0 -38.1226,-0.058 -37.0393,-4.2017 z m -88.1291,-42.7683 c -1.4134,-1.4133 -2.4296,-8.1884 -2.4296,-16.1966 v -13.7671 h 127.5477 127.5476 v 13.0149 c 0,9.1327 -0.949,13.9644 -3.1814,16.1967 -2.8218,2.8218 -16.9659,3.1816 -125.1181,3.1816 -92.1404,0 -122.5304,-0.5938 -124.3662,-2.4295 z m -1.9477,-116.5137 0.5304,-76.4275 h 126.5354 126.5355 l 0.5304,76.4275 0.5305,76.4273 h -127.5964 -127.5965 z m -957.9895,133.055 c 9.9361,-5.3175 10.0106,-6.2442 10.0106,-124.4507 0,-94.1103 -0.4496,-111.4095 -3.0252,-116.3904 -6.6082,-12.7786 0.3475,-12.1696 -139.0322,-12.1696 h -126.9843 l -5.6802,4.8862 -5.6806,4.886 v 117.4371 117.4369 l 4.9081,5.2246 4.9083,5.2245 h 128.3401 c 84.1518,0 129.6813,-0.7177 132.2354,-2.0846 z m -258.5593,-10.5537 c -0.8718,-1.4004 -1.7405,-42.3914 -1.9307,-91.0916 l -0.3458,-88.5453 129.519,-0.5355 c 71.235,-0.2944 129.6701,-0.3843 129.8554,-0.2005 0.1842,0.1842 -0.1201,41.1824 -0.6754,91.1055 l -1.0123,90.7699 -126.9128,0.5212 c -100.1961,0.4117 -127.2462,-0.019 -128.4974,-2.0244 z m 134.3467,-80.6364 c 9.2129,-23.8609 16.7616,-44.5856 16.7745,-46.0551 0.021,-1.5976 -1.7497,-2.4114 -4.3878,-2.0245 -3.7259,0.5465 -7.0355,7.379 -21.2823,43.9385 -13.2683,34.0476 -16.3683,43.8966 -14.5178,46.1263 1.2938,1.559 3.3224,2.5115 4.5076,2.1164 1.185,-0.3949 9.6927,-20.2407 18.9058,-44.1016 z m 77.0678,-1.0127 c -0.7739,-3.0819 -39.0973,-39.3339 -41.5813,-39.3339 -1.1322,0 -2.5752,1.3466 -3.2066,2.9924 -0.7437,1.9376 4.8968,8.9831 16.0036,19.9905 l 17.1523,16.9985 -17.1625,14.933 c -16.2484,14.1377 -20.4967,20.6157 -14.7724,22.5262 3.0824,1.0288 44.3341,-35.0528 43.5669,-38.1067 z m -119.5449,34.2297 c 0.4318,-1.2965 -6.4949,-9.3535 -15.3922,-17.9044 l -16.1772,-15.5466 11.5111,-10.5924 c 6.331,-5.8257 15.0716,-13.7934 19.4236,-17.7061 7.7407,-6.9594 8.5125,-11.8141 1.878,-11.8141 -4.1161,0 -42.8027,34.5521 -43.0245,38.4267 -0.2328,4.0628 34.5213,38.7453 38.1272,38.0486 1.578,-0.3047 3.2224,-1.6149 3.654,-2.9117 z m -94.5915,-159.7259 c 0,-28.2119 -15.688,-25.1888 130.7192,-25.1888 118.6204,0 126.615,0.2213 127.9251,3.5429 0.7688,1.9487 1.4233,11.287 1.4549,20.7519 l 0.056,17.2088 -130.0785,0.5208 -130.0783,0.5212 z m 207.6253,1.012 c 4.2175,-4.6605 2.248,-10.4679 -3.9645,-11.69 -7.9613,-1.566 -12.682,9.639 -5.7595,13.671 4.9005,2.8541 5.4492,2.7423 9.724,-1.981 z m 33.2175,-0.7965 c 2.9368,-3.5391 1.1269,-10.3976 -3.18,-12.0505 -3.9844,-1.5289 -10.9115,2.1439 -10.9115,5.7852 0,8.7893 8.7629,12.6855 14.0915,6.2653 z m 429.2661,111.2654 c 7.8873,-4.0786 12.1699,-10.6692 12.1699,-18.7284 0,-6.983 -3.9205,-12.1966 -28.1581,-37.4458 -6.6438,-6.9209 -10.3709,-12.2961 -9.2141,-13.2885 1.0683,-0.9164 6.7253,-5.565 12.5712,-10.3303 10.7849,-8.7913 13.5389,-15.5751 8.0983,-19.9485 -1.392,-1.1189 -16.6521,-8.3851 -33.9116,-16.1472 -17.2592,-7.7618 -44.1205,-19.9156 -59.6911,-27.008 l -28.3105,-12.8956 8.065,-2.2627 c 5.7978,-1.6268 8.0646,-3.3494 8.0646,-6.1292 0,-3.3513 -1.3237,-3.7967 -9.9356,-3.3435 -10.5894,0.5573 -15.3715,3.0957 -15.3715,8.1596 0,2.8275 28.5469,93.288 38.7889,122.9144 8.1736,23.644 16.0658,25.557 31.7354,7.6928 l 10.1232,-11.5406 9.7095,11.0345 c 28.5996,32.5012 33.2271,35.4931 45.2665,29.267 z m -26.9972,-25.8248 c -8.3477,-9.1864 -17.1373,-19.208 -19.5329,-22.2702 -2.3955,-3.0622 -5.7223,-5.5675 -7.3928,-5.5675 -1.6707,0 -8.3673,5.6882 -14.8816,12.6407 -6.5142,6.9523 -12.3601,12.1246 -12.9907,11.4937 -0.6311,-0.6308 -9.584,-26.1776 -19.8956,-56.7705 l -18.7484,-55.6237 46.565,22.0593 c 25.6108,12.1325 49.0705,23.0803 52.1327,24.328 3.062,1.2479 5.5675,2.834 5.5675,3.5245 0,0.6909 -5.4663,5.501 -12.1474,10.6894 -6.6811,5.1882 -12.1474,10.8751 -12.1474,12.6378 0,1.7624 8.4272,12.2687 18.7273,23.3475 21.2873,22.8967 24.7419,29.0289 18.8001,33.3736 -2.136,1.5621 -5.0075,2.8402 -6.3809,2.8402 -1.3737,0 -9.3272,-7.5162 -17.6749,-16.7028 z m 448.6355,-11.4166 c 1.9487,-0.1236 5.3652,-2.0467 7.5922,-4.2737 3.9528,-3.9528 4.0493,-6.7487 4.0493,-117.4249 0,-110.6762 -0.097,-113.4721 -4.0493,-117.4248 -3.9627,-3.9628 -6.7485,-4.0492 -130.5844,-4.0492 -123.8362,0 -126.622,0.087 -130.5847,4.0492 -3.9516,3.9515 -4.049,6.7486 -4.049,116.1394 0,110.2068 0.071,112.1799 4.1813,117.4062 l 4.1815,5.3157 101.602,0.5251 c 91.2602,0.4712 137.3759,0.389 147.6611,-0.263 z m -246.2683,-13.5343 c -0.6791,-1.7699 -1.2349,-40.9524 -1.2349,-87.0719 v -83.8539 h 124.5325 124.5328 l -0.528,86.5501 -0.5279,86.5503 -122.7699,0.5217 c -110.6385,0.4701 -122.8917,0.2038 -124.0046,-2.6963 z m 119.7891,-39.8352 c 1.1388,-1.3918 6.3632,-18.0187 11.6098,-36.9483 5.2467,-18.9297 9.9563,-35.8479 10.4656,-37.596 1.2331,-4.2301 -4.8447,-9.3506 -7.7045,-6.4912 -1.1569,1.1573 -6.4825,17.4721 -11.8343,36.2552 -5.3517,18.7832 -10.3901,35.7573 -11.1965,37.7201 -0.8248,2.0079 -0.3728,4.8857 1.0331,6.5799 3.049,3.6739 4.9177,3.7917 7.6268,0.4803 z m 64.2557,-30.6023 c 6.2996,-5.5432 9.388,-9.7063 8.642,-11.6497 -1.684,-4.3887 -35.6328,-28.571 -38.0299,-27.0893 -5.0619,3.1281 -1.222,8.9998 12.1039,18.5085 l 14.1288,10.0816 -9.5735,7.3031 c -15.4791,11.8079 -19.7416,17.0807 -16.7359,20.7026 2.2269,2.683 3.6055,2.3003 11.1024,-3.0839 4.7079,-3.3808 12.971,-10.0287 18.3622,-14.7729 z m -84.5281,14.8804 c 0.3331,-1.7299 -4.6168,-6.9143 -11.5753,-12.1241 -6.6866,-5.0064 -12.1766,-9.6277 -12.2001,-10.2699 -0.025,-0.6419 5.4558,-5.1507 12.1757,-10.0189 12.0988,-8.765 14.7734,-14.3631 7.5293,-15.7583 -3.2876,-0.633 -25.9715,14.9238 -31.3232,21.4814 -3.3948,4.1602 -1.6677,6.4628 14.6124,19.4789 13.9718,11.1708 19.6398,13.1377 20.7812,7.2109 z m -100.7516,-142.4789 v -19.0118 l 6.5799,-0.731 c 3.6188,-0.4019 59.4211,-0.7294 124.0048,-0.7278 h 117.4247 l 0.5794,19.7396 0.5795,19.7397 h -124.5841 -124.5842 z m 17.715,-26.993 c 3.619,-0.4491 9.5408,-0.4491 13.1597,0 3.6188,0.4489 0.658,0.8164 -6.5799,0.8164 -7.2377,0 -10.1987,-0.3675 -6.5798,-0.8164 z m -139.5637,213.3081 5.4361,-5.4419 0.019,-88.5228 c 0,-48.6876 -0.7828,-90.3449 -1.7555,-92.5719 -0.9726,-2.227 -3.7116,-5.6232 -6.087,-7.5471 -3.9858,-3.2288 -13.9473,-3.5014 -129.4683,-3.5429 -82.0497,-0.03 -126.4914,0.6728 -129.0451,2.0394 -9.6821,5.1818 -10.0108,8.3837 -10.0076,97.5248 0,94.3074 0.1625,95.4257 14.169,100.2022 8.1584,2.7823 58.3291,3.4675 62.4547,0.853 1.5013,-0.9515 2.4018,-3.4429 2.0011,-5.5366 -0.6662,-3.4815 -3.455,-3.8928 -32.6709,-4.8186 -25.3993,-0.805 -32.3349,-1.6345 -33.8572,-4.0492 -2.7069,-4.293 -2.5944,-167.1515 0.1201,-172.2214 2.0366,-3.8055 5.5615,-3.9159 125.1183,-3.9159 92.9846,0 123.6155,0.5932 125.4517,2.4296 1.8146,1.8146 2.4296,24.5616 2.4296,89.8765 0,98.2227 1.4937,89.9049 -16.1457,89.9049 -7.3523,0 -10.0689,0.8556 -11.0798,3.4896 -3.9304,10.2428 23.0273,11.7563 32.9244,1.8483 z m -105.973,-101.212 c 4.5467,-3.3248 2.8649,-9.4033 -2.6014,-9.4033 -4.657,0 -11.3939,7.0387 -9.5669,9.9953 1.8398,2.9765 7.6763,2.6924 12.1683,-0.592 z m -21.6047,-9.8082 c 3.489,-3.4893 3.0131,-13.1099 -0.7194,-14.5422 -2.2337,-0.8571 -4.0176,0.871 -6.1381,5.9463 -1.6442,3.9349 -2.4511,8.0253 -1.7931,9.0898 1.644,2.6603 5.7297,2.427 8.6506,-0.4939 z m 1128.8275,-15.9387 5.3344,-4.1961 v -110.8903 c 0,-110.1886 -0.026,-110.9149 -4.2647,-114.7472 -4.1252,-3.7307 -9.2041,-3.8389 -155.2718,-3.3093 -136.4274,0.4947 -151.3602,0.8671 -154.6638,3.8567 -3.4412,3.1142 -3.6565,9.8537 -3.6565,114.3467 0,108.3378 0.099,111.1358 4.0491,115.0865 3.9761,3.9761 6.7485,4.0492 153.5939,4.0492 148.225,0 149.592,-0.037 154.8794,-4.1962 z m -302.3996,-91.9576 v -86.0572 h 148.8274 148.8278 l -0.5282,85.538 -0.5281,85.5379 -148.2994,0.5193 -148.2995,0.5192 z m 145.4917,39.9721 c 4.1275,-7.7377 24.7709,-71.8737 24.1582,-75.0557 -0.3597,-1.8679 -2.3351,-3.3963 -4.3897,-3.3963 -3.0301,0 -6.1786,7.0724 -16.6738,37.4545 -7.1159,20.6 -12.9386,39.0488 -12.9395,40.9975 -6e-4,2.1722 1.5377,3.5429 3.977,3.5429 2.1878,0 4.8283,-1.5942 5.8678,-3.5429 z m 64.557,-16.8522 c 9.1866,-8.942 16.6675,-17.8052 16.6244,-19.6956 -0.1131,-4.9652 -35.6897,-37.5348 -39.4315,-36.0989 -5.6684,2.1751 -2.9857,6.859 12.1781,21.2631 8.3514,7.9329 15.1844,15.0327 15.1844,15.7769 0,0.7444 -6.9594,7.918 -15.4652,15.9415 -14.7613,13.9244 -17.314,19.2187 -9.2164,19.115 1.8828,-0.025 10.9398,-7.3601 20.1262,-16.302 z m -89.1392,10.9837 c 0.7024,-2.1348 -7.8111,-10.9843 -22.4867,-23.3742 l -5.8423,-4.9324 10.9037,-10.2892 c 5.9971,-5.659 13.1055,-12.0628 15.7965,-14.231 5.3533,-4.3126 4.7463,-10.6462 -1.0201,-10.6462 -3.8921,0 -39.3025,31.6987 -39.3025,35.1828 0,1.2935 7.4715,8.9782 16.6032,17.0772 15.9204,14.1201 23.3155,17.3916 25.3482,11.213 z m -120.9095,-148.5048 v -16.1965 h 148.8057 148.8055 v 16.1965 16.1966 h -148.8055 -148.8057 z m -1177.3361,153.6688 c 11.71,-2.9487 17.8248,-9.7539 19.1992,-21.3661 0.9944,-8.4025 1.7927,-9.5485 8.5123,-12.2207 7.0717,-2.8123 7.7924,-2.6991 15.5675,2.4463 10.3787,6.8681 18.444,5.5467 29.3168,-4.8033 14.5276,-13.8293 16.7608,-23.2726 8.4125,-35.5744 -4.152,-6.1184 -4.7798,-8.6806 -3.4173,-13.9484 1.4429,-5.5789 2.7491,-6.6052 9.6419,-7.5761 9.7455,-1.373 16.3148,-4.7935 19.0612,-9.9252 2.6913,-5.0289 2.6814,-31.6053 -0.019,-36.641 -2.7558,-5.1492 -12.4337,-10.0107 -19.9281,-10.0107 -5.0681,0 -6.3818,-1.1047 -8.3282,-7.0028 -2.0697,-6.2704 -1.7686,-7.8016 2.8797,-14.642 6.7867,-9.9876 6.626,-18.2882 -0.5453,-28.1595 -7.3575,-10.1279 -10.5603,-12.688 -18.8451,-15.064 -5.659,-1.6231 -8.4542,-1.0759 -17.2573,3.3781 l -10.505,5.315 -7.2335,-4.4706 c -5.9601,-3.6835 -7.2336,-5.6619 -7.2336,-11.2363 0,-17.328 -23.8591,-28.2747 -44.0333,-20.2025 -9.0564,3.6238 -13.0266,9.132 -14.5662,20.2094 -0.9447,6.7976 -2.3468,8.745 -8.7444,12.1474 l -7.6192,4.0522 -7.9662,-4.5552 c -9.9511,-5.6905 -17.2948,-5.7728 -25.2596,-0.2828 -16.3761,11.2877 -21.8857,27.8616 -13.0126,39.1422 3.8693,4.9189 4.0729,6.3256 1.9434,13.4329 -1.9425,6.4835 -3.3061,7.9385 -7.4392,7.9385 -7.2729,0 -20.5751,7.3165 -22.1132,12.1628 -1.7627,5.5539 -1.9798,28.3202 -0.319,33.4579 1.6494,5.1023 10.5657,10.5242 20.8065,12.6518 6.375,1.3247 8.0794,2.7409 9.5751,7.9563 1.4521,5.0628 1.0051,7.5016 -2.212,12.0679 -6.586,9.348 -6.9347,13.2894 -2.0326,22.9791 5.354,10.5837 19.7705,22.2227 27.5253,22.2227 2.9956,0 8.6808,-2.1979 12.634,-4.8841 7.0613,-4.7984 7.3256,-4.8233 15.0496,-1.4153 5.8896,2.5984 7.9289,4.7212 8.1288,8.4614 0.7545,14.1265 6.4688,21.0235 20.1334,24.3008 8.9099,2.1366 10.5009,2.1098 20.2373,-0.3417 z m -21.2072,-10.4543 c -6.7502,-2.3884 -7.1151,-3.012 -7.6988,-13.1593 -0.6923,-12.0328 -2.5154,-13.863 -19.8061,-19.8827 l -10.2959,-3.5846 -7.3984,5.6432 c -9.128,6.9624 -14.6319,6.029 -23.4106,-3.9691 -6.8723,-7.8273 -8.0757,-15.1863 -3.1517,-19.2728 6.5352,-5.424 7.3762,-9.8038 3.8944,-20.2865 -4.2342,-12.7484 -7.6169,-16.0639 -16.389,-16.0639 -10.3624,0 -16.9723,-7.3675 -16.9723,-18.9171 0,-12.4178 4.6557,-17.6344 16.9769,-19.0232 9.3316,-1.0519 9.8891,-1.4798 13.5857,-10.4285 2.1198,-5.1322 4.8404,-11.033 6.0454,-13.1129 1.8021,-3.1103 1.0835,-4.9238 -4.0489,-10.2192 -8.575,-8.8472 -8.2894,-15.9812 0.9904,-24.7333 8.6296,-8.1385 12.5708,-8.4366 23.8853,-1.8058 l 8.5538,5.0128 12.2535,-5.795 c 12.9453,-6.1221 14.888,-8.6361 14.888,-19.2668 0,-11.707 12.9224,-18.0634 27.1659,-13.3625 8.6887,2.8674 11.3009,7.0805 11.3009,18.2273 0,8.2982 0.028,8.329 13.4481,14.3499 14.1707,6.3578 18.1627,6.3276 24.0531,-0.1823 7.0081,-7.7437 20.1698,-3.6514 26.2842,8.1723 4.1056,7.9396 3.9262,8.9337 -3.0484,16.8773 -7.2032,8.204 -7.3627,10.1261 -1.8971,22.8772 4.802,11.2022 6.6699,12.7883 15.1125,12.831 3.3711,0.02 8.1541,1.4493 10.6289,3.1827 3.7833,2.6496 4.4996,5.0488 4.4996,15.0693 0,10.0206 -0.7163,12.4196 -4.4996,15.0696 -2.4748,1.7332 -6.8559,3.1515 -9.736,3.1515 -7.3914,0 -11.2818,3.6005 -16.0412,14.846 -5.2956,12.5128 -5.2802,12.6779 1.9329,20.8932 3.3406,3.8048 6.0702,8.0248 6.066,9.378 -0.02,4.8782 -8.0404,15.4899 -14.0748,18.6103 -6.5148,3.3692 -9.6198,2.508 -21.3474,-5.9196 -3.6125,-2.596 -5.4688,-2.3161 -17.2089,2.595 l -13.1596,5.5047 -0.5944,11.1549 c -0.4458,8.3688 -1.5614,11.7586 -4.4668,13.5729 -6.0585,3.7838 -18.5446,4.716 -26.3196,1.965 z m 32.5237,-69.824 c 15.5202,-7.8703 22.7039,-18.7528 23.8063,-36.0658 1.5575,-24.4608 -10.316,-41.9386 -32.9634,-48.5225 -43.1743,-12.5511 -77.6079,39.6075 -48.555,73.5493 14.7663,17.251 37.0541,21.5143 57.7121,11.039 z m -37.585,-7.7391 c -21.9605,-11.4213 -27.5476,-36.9884 -12.042,-55.1032 13.1537,-15.3673 31.5433,-18.2925 47.7156,-7.5902 21.712,14.3682 20.9864,48.6267 -1.2974,61.2474 -9.6382,5.4587 -25.3871,6.1212 -34.3762,1.446 z m 1014.8137,26.2619 c 3.275,-2.1032 4.5553,-4.8843 4.5553,-9.8937 0,-9.8468 5.632,-12.6036 14.5898,-7.1422 9.4897,5.7858 12.0471,5.2217 23.658,-5.2175 11.6958,-10.5156 13.561,-18.3953 6.2067,-26.2234 -3.5673,-3.797 -3.8008,-5.1357 -1.6997,-9.7471 1.3398,-2.94 4.0687,-5.3454 6.0644,-5.3454 7.7415,0 13.98,-4.7173 16.2476,-12.2857 4.6047,-15.369 -2.5214,-30.2302 -14.4961,-30.2302 -4.5667,0 -6.7038,-1.288 -8.4324,-5.0815 -1.9706,-4.3253 -1.663,-5.7756 2.0682,-9.7473 2.7991,-2.9795 4.3831,-7.269 4.3831,-11.8694 0,-5.9386 -1.5922,-8.6713 -9.0653,-15.56 -10.2716,-9.4681 -13.4435,-10.0468 -23.0296,-4.2027 -6.2801,3.829 -7.1504,3.9005 -11.6412,0.9581 -2.8151,-1.8445 -4.8535,-5.1545 -4.8535,-7.8811 0,-6.1657 -5.942,-11.3377 -15.5424,-13.5278 -14.8256,-3.3825 -28.998,4.1494 -28.998,15.4108 0,6.0258 -9.3829,10.2455 -13.9285,6.2637 -6.2663,-5.4891 -12.0993,-5.8874 -19.4744,-1.3295 -14.7965,9.1449 -19.0222,20.8988 -11.1235,30.9405 5.4826,6.9702 2.6251,15.6262 -5.1585,15.6262 -2.8845,0 -6.9339,0.9039 -8.9987,2.0089 -8.827,4.7241 -10.0191,28.4923 -1.8391,36.6718 2.2522,2.2523 6.6618,3.8352 10.6847,3.8352 5.8598,0 7.0071,0.8048 7.9362,5.5676 0.7454,3.8217 -0.1342,6.8779 -2.8008,9.7471 -2.138,2.2987 -3.887,6.8741 -3.887,10.1676 0,7.9813 10.1964,20.1246 19.4673,23.1843 6.4347,2.1237 7.9348,1.9084 13.0479,-1.8718 4.8839,-3.6108 6.5737,-3.9087 10.926,-1.9258 2.8924,1.3181 5.1484,4.036 5.1484,6.203 0,11.1943 11.5745,18.4926 26.3193,16.5953 5.0108,-0.6447 11.1605,-2.4888 13.6658,-4.098 z m -26.3192,-7.0437 c -2.076,-1.2092 -3.5431,-4.4771 -3.5431,-7.8922 0,-7.2939 -3.2709,-10.6181 -13.8979,-14.1256 -7.4951,-2.4733 -9.0746,-2.3743 -15.2617,0.9578 -6.4573,3.4776 -7.2293,3.5016 -11.9998,0.3758 -7.3299,-4.8027 -8.5236,-10.53 -3.5205,-16.8907 5.0429,-6.4112 5.1402,-8.3926 0.927,-18.9217 -2.8594,-7.1468 -4.2512,-8.3096 -11.2933,-9.4356 -5.8049,-0.9284 -8.5149,-2.5552 -9.7745,-5.8688 -2.4663,-6.487 0.5157,-15.9821 5.2415,-16.6905 11.1014,-1.6636 12.6815,-2.7194 15.8239,-10.5724 4.2936,-10.7315 4.1209,-13.9887 -1.0328,-19.4747 -5.6409,-6.0044 -3.7807,-13.7804 4.2956,-17.9569 4.9303,-2.5496 6.7487,-2.6508 10.0934,-0.5621 2.2438,1.4014 4.0797,3.2397 4.0797,4.0853 0,2.5431 7.506,1.742 16.1742,-1.7265 7.8763,-3.1514 8.9127,-4.714 10.5915,-15.9692 0.5015,-3.3631 2.4052,-4.1529 11.2364,-4.6619 7.4393,-0.4286 10.8471,0.1801 11.3462,2.0246 3.4124,12.6158 4.9393,15.05 11.4362,18.2303 9.5122,4.6568 13.9961,4.4669 19.6366,-0.8322 4.5254,-4.2513 5.0324,-4.3092 10.2533,-1.1712 3.021,1.8155 6.3471,5.6371 7.3913,8.4921 1.5565,4.2545 1.0268,6.1198 -2.9355,10.3376 -4.5678,4.862 -4.696,5.6742 -2.3224,14.7075 2.6046,9.9117 7.4136,15.4421 11.9231,13.7117 1.4333,-0.5501 4.8759,-0.1377 7.6503,0.9175 4.1619,1.5824 5.0437,3.2715 5.0437,9.661 0,9.0258 -2.8277,12.5901 -10.0216,12.6336 -7.1475,0.042 -9.2708,1.8097 -13.0334,10.8451 -4.3698,10.494 -4.1519,12.7916 1.8948,19.9776 l 5.1592,6.1314 -4.6531,4.9758 c -8.0743,8.6343 -11.5407,9.5613 -17.9736,4.8053 -6.8005,-5.028 -9.7669,-5.232 -19.1374,-1.317 -6.3592,2.6571 -7.021,3.7001 -7.021,11.0641 0,5.9662 -1.0425,8.6882 -3.9161,10.2261 -4.9429,2.6452 -14.2395,2.6005 -18.8602,-0.092 z m 18.8168,-44.3697 c 8.1403,-2.2615 18.8608,-12.4158 22.0565,-20.8921 7.2647,-19.2693 -3.9474,-40.4816 -24.2927,-45.9601 -15.9157,-4.2855 -30.3855,2.6523 -38.4336,18.4279 -4.9226,9.6493 -4.9699,18.6919 -0.1519,29.1824 4.5575,9.9246 9.7584,14.7268 19.8471,18.3248 9.4156,3.3578 11.812,3.4627 20.9755,0.9171 z m -21.6174,-11.99 c -9.0146,-5.4968 -12.9009,-11.9752 -12.8182,-21.3681 0.087,-9.9659 3.3834,-16.2698 11.1999,-21.4225 16.1048,-10.6164 37.9928,1.6932 37.9928,21.3667 0,10.2093 -5.4708,18.906 -14.1833,22.5464 -8.9729,3.7492 -14.6748,3.4606 -22.1912,-1.1225 z m -559.5229,-14.3379 c 4.5374,-4.5372 5.229,-12.2193 1.6981,-18.8604 -1.2931,-2.4321 -9.4999,-12.1444 -18.2371,-21.583 -8.7373,-9.4383 -15.6512,-17.8283 -15.3638,-18.6444 0.2872,-0.8161 7.8106,-5.8486 16.7187,-11.1833 13.0504,-7.8153 16.1965,-10.6429 16.1965,-14.5571 0,-3.7755 -1.6517,-5.4294 -7.4147,-7.4245 -7.9993,-2.7694 -50.784,-21.9781 -89.5115,-40.1875 -13.2229,-6.2173 -25.2491,-11.304 -26.7249,-11.304 -5.7547,0 -6.541,6.5582 -2.5304,21.1064 5.404,19.6036 25.1151,79.7316 32.3428,98.6611 8.8818,23.2613 14.1542,23.3791 24.1908,0.5413 3.6331,-8.2672 7.1971,-15.0314 7.9199,-15.0314 0.7227,0 9.338,9.0762 19.1444,20.1694 9.8068,11.0931 18.8447,20.5871 20.0842,21.098 6.1169,2.5209 17.6714,1.015 21.487,-2.8006 z m -27.4739,-18.6395 c -6.6482,-7.0078 -16.2936,-17.6185 -21.4339,-23.5795 -11.8941,-13.7932 -14.8767,-13.0686 -24.6842,5.9972 l -7.3573,14.3027 -2.1965,-5.7431 c -3.2926,-8.609 -34.2789,-101.9813 -34.2789,-103.2938 0,-0.6252 1.2103,-0.1307 2.6896,1.0955 2.8149,2.3363 59.7451,28.346 87.1005,39.7935 l 15.8934,6.651 -9.8197,5.5504 c -16.417,9.2793 -25.004,15.0736 -25.004,16.8723 0,2.1697 13.3783,17.8738 28.8924,33.915 12.4116,12.8333 14.467,19.4282 6.4158,20.5862 -2.8619,0.4115 -7.8398,-3.3172 -16.2172,-12.1474 z m 392.5594,-2.3423 c 14.0511,-5.8708 13.5085,-0.8228 13.5085,-125.6962 v -112.4027 l -5.9069,-6.6118 -5.9068,-6.6117 -126.8132,-0.5508 -126.8134,-0.551 -5.9626,5.9628 -5.9626,5.9626 v 114.2707 c 0,113.6657 0.023,114.2998 4.3286,119.7738 2.3809,3.0267 6.253,6.2807 8.6045,7.2308 2.3515,0.95 58.2848,1.7852 124.2962,1.8558 96.992,0.1042 121.2884,-0.4014 126.6277,-2.6323 z m -251.2035,-10.7275 c -1.9714,-0.7954 -2.5307,-20.9004 -2.5307,-90.9458 v -89.9244 h 128.56 128.56 v 87.1894 c 0,56.2304 -0.7444,88.58 -2.096,91.1055 -2.0384,3.8091 -5.486,3.9117 -126.0292,3.7561 -68.1634,-0.086 -125.0722,-0.6192 -126.4641,-1.1808 z m 116.3289,-45.7303 c 2.9338,-3.846 25.0149,-82.6771 23.7373,-84.7441 -0.6139,-0.9934 -2.8201,-1.8062 -4.9023,-1.8062 -2.8739,0 -4.5866,2.8042 -7.1098,11.6413 -1.8281,6.4027 -7.3591,25.0724 -12.291,41.4884 -4.9321,16.4159 -8.9672,31.2206 -8.9672,32.8992 0,3.6872 6.8329,4.0609 9.533,0.5214 z m 67.0742,-19.9483 16.5326,-20.4543 -5.9224,-7.3835 c -10.7209,-13.3663 -30.079,-31.1835 -32.3532,-29.7779 -4.4761,2.7664 -1.9481,7.9267 10.9341,22.3207 7.2379,8.0868 13.1597,15.2603 13.1597,15.9409 0,0.6807 -5.2385,7.4108 -11.6412,14.9555 -18.5367,21.8433 -17.8963,20.8331 -14.548,22.9517 1.5986,1.0114 3.8965,1.8531 5.1064,1.8703 1.2099,0.021 9.6394,-9.1736 18.732,-20.4234 z m -93.9059,10.1847 c -0.6883,-1.5894 -8.01,-8.8051 -16.271,-16.0349 -8.261,-7.2297 -14.9768,-13.607 -14.924,-14.172 0.053,-0.5648 7.7583,-7.2027 17.1233,-14.7507 11.4263,-9.2096 16.6508,-14.7035 15.8838,-16.7027 -1.9147,-4.9898 -8.1053,-3.364 -17.5658,4.6132 -4.9523,4.1757 -13.6627,11.5144 -19.3566,16.3088 -5.6939,4.7942 -10.3527,9.5933 -10.3527,10.6646 0,2.1795 25.3391,26.5596 35.053,33.7261 5.2207,3.8517 6.7231,4.1754 8.9662,1.9325 1.4819,-1.4821 2.1317,-3.9951 1.4438,-5.5849 z m -92.0279,-154.3275 c 0,-10.3702 0.93,-17.7342 2.4294,-19.2334 1.8362,-1.8364 32.4134,-2.4294 125.2094,-2.4294 143.0888,0 129.97,-2.3399 129.2977,23.0598 l -0.4078,15.4068 h -128.2644 -128.2643 z m 240.9233,-0.071 c 0,-9.922 -10.6441,-12.9339 -14.6487,-4.145 -2.1288,4.6725 -1.8619,5.7466 2.256,9.0811 5.7576,4.6623 12.3927,2.0194 12.3927,-4.9361 z m -33.5499,3.5708 c 3.7637,-3.7639 3.7962,-4.0344 1.0856,-9.099 -3.0705,-5.7373 -11.6262,-5.0941 -14.4419,1.0852 -4.1386,9.0838 6.1271,15.243 13.3563,8.0138 z m -467.8175,171.2089 c 7.2161,-11.2001 8.529,-18.2095 3.4108,-18.2095 -3.3264,0 -20.1506,24.4373 -18.96,27.5396 2.246,5.8535 7.9856,2.4095 15.5492,-9.3301 z m -11.4062,-43.9692 c 2.3817,-6.2069 -2.8275,-7.231 -18.0189,-3.543 -15.2283,3.6973 -19.0621,6.1875 -15.7221,10.212 2.618,3.1544 32.2163,-2.6957 33.741,-6.669 z m 115.7959,-40.5448 c 11.5813,-7.1687 15.1755,-12.6681 10.2635,-15.7041 -2.1867,-1.3514 -24.1443,11.1768 -28.2414,16.1135 -2.7823,3.3523 -1.2169,7.1827 2.9354,7.1827 1.5272,0 8.2964,-3.4164 15.0425,-7.5921 z m -110.1761,0.6211 c 0,-4.6326 -20.1587,-17.4952 -26.2988,-16.7805 -8.2431,0.9597 -5.2733,6.5585 7.5147,14.1665 13.6079,8.0961 18.7841,8.8163 18.7841,2.614 z m 65.5338,-15.9928 c 2.3519,-2.8337 14.4366,-31.1158 14.4366,-33.7859 0,-2.7166 -6.5101,-4.1211 -9.108,-1.9649 -3.6757,3.0507 -13.7866,31.897 -12.4243,35.4472 1.439,3.7501 4.1397,3.8656 7.0957,0.3036 z m -32.288,-4.8739 c -0.3045,-6.7647 -8.9918,-27.4221 -12.4491,-29.6031 -6.5662,-4.1419 -8.0285,1.0055 -3.7875,13.3325 2.1419,6.2257 4.9173,13.2307 6.1673,15.5667 2.7987,5.229 10.2966,5.7533 10.0693,0.7039 z m 1036.9013,-20.2777 5.9098,-6.6118 v -102.2799 c 0,-114.7077 0.6904,-109.3452 -14.8422,-115.2703 -7.4482,-2.8411 -23.1186,-3.1509 -133.3106,-2.6354 -123.1408,0.5759 -124.9494,0.6429 -130.5846,4.8265 -10.6821,7.9311 -10.9721,11.2257 -10.3423,117.4823 l 0.5791,97.6781 5.8452,6.0995 c 3.9733,4.1461 8.1873,6.2952 13.1597,6.7111 4.0229,0.3364 63.6459,0.6118 132.4951,0.6118 h 125.1808 z m -268.2743,-7.7048 c -2.7789,-2.7787 -3.1814,-12.7696 -3.1814,-78.9579 v -75.7767 l 133.1152,-9e-4 133.1153,-7e-4 -0.5548,76.2791 c -0.3754,51.6608 -1.2724,77.144 -2.7785,78.9588 -1.8018,2.1712 -26.3544,2.6799 -129.3791,2.6799 -112.8962,0 -127.5121,-0.3568 -130.3367,-3.1816 z m -3.1814,-182.6917 c 0,-11.0803 0.9584,-19.1386 2.5308,-21.2787 2.3439,-3.1906 12.0871,-3.4059 132.1029,-2.9177 l 129.5723,0.527 0.577,20.7518 0.577,20.7517 h -132.6801 -132.6799 z m 61.6179,-0.242 c 4.2373,-4.682 2.7021,-11.5248 -2.9908,-13.3317 -4.642,-1.4732 -7.2363,-0.1448 -10.0732,5.155 -1.6269,3.0401 -1.187,4.7846 2.0139,7.9855 5.0813,5.0811 6.6012,5.1076 11.0501,0.1923 z m 31.4197,0.9788 c 1.3353,-1.6089 2.1302,-5.0254 1.7664,-7.5922 -0.8536,-6.02 -9.4273,-7.6094 -13.2018,-2.4474 -3.3986,4.6481 -3.329,5.9172 0.5373,9.7837 3.9655,3.9655 7.7458,4.0542 10.8981,0.2559 z m -64.5528,-2.3056 c 2.9746,-3.5843 1.0554,-8.1676 -4.9583,-11.8426 -5.0804,-3.1044 -12.2586,5.5737 -9.2538,11.1879 2.5078,4.6857 10.5586,5.0566 14.2121,0.6547 z m -997.0367,173.7453 c 6.4981,-4.3389 6.8829,-10.5903 6.8829,-111.7853 v -101.4535 l -4.9695,-4.9695 -4.9694,-4.9692 h -124.6948 -124.6949 l -4.9694,4.9692 -4.9694,4.9695 v 103.345 c 0,100.6452 0.106,103.4506 4.0493,107.3939 3.963,3.9633 6.7271,4.0484 130.0783,4.0182 69.316,-0.019 127.0316,-0.7004 128.2569,-1.5183 z m -249.7502,-8.2205 c -2.0057,-1.2806 -2.4377,-23.1932 -2.0244,-102.725 l 0.5252,-101.0969 h 123.4986 123.4986 v 102.2406 102.2405 l -121.4739,0.4841 c -66.8107,0.2665 -122.6216,-0.2481 -124.0241,-1.1433 z m 106.2132,-41.3505 c 1.0552,-1.3918 7.9903,-19.3851 15.4111,-39.9851 7.4207,-20.6 14.5849,-40.3424 15.9208,-43.8723 1.9372,-5.1196 1.8915,-7.0642 -0.2268,-9.6166 -3.1937,-3.8481 -6.0274,-4.1116 -7.1902,-0.6683 -0.4701,1.3919 -8.1343,22.4051 -17.0313,46.6962 -8.8971,24.2909 -15.6751,45.473 -15.0617,47.0712 1.3734,3.5791 5.6021,3.773 8.1781,0.3749 z m 76.4487,-22.2301 c 9.3568,-8.095 17.6627,-16.9082 18.4576,-19.5847 1.2657,-4.2615 -1.0448,-7.2064 -18.5917,-23.6954 -11.0204,-10.3559 -21.2045,-18.871 -22.6313,-18.9224 -1.427,-0.051 -3.1392,1.3265 -3.8048,3.0617 -0.8299,2.1624 4.3887,8.5681 16.5928,20.3669 l 17.8034,17.2123 -10.9486,9.4955 c -25.1849,21.8424 -25.2462,21.9129 -22.2184,25.561 3.7615,4.5327 5.6915,3.5048 25.341,-13.4949 z m -102.1661,10.7565 c 0,-2.2484 -6.1697,-9.4567 -14.6661,-17.1347 l -14.6662,-13.2534 9.0531,-9.2246 c 5.6553,-5.7623 10.1867,-8.7892 12.0737,-8.0649 1.6614,0.6372 2.3466,0.4849 1.5229,-0.3389 -0.824,-0.8239 1.7956,-4.8709 5.8208,-8.9931 7.7052,-7.891 8.6446,-14.4507 2.2463,-15.6829 -3.8091,-0.7334 -43.9004,36.805 -43.9004,41.1048 0,3.0727 36.304,35.4691 39.7471,35.4691 1.5229,0 2.7688,-1.7464 2.7688,-3.8814 z m -95.7961,46.0178 c -0.6464,-1.6153 -1.1261,-1.1354 -1.2234,1.223 -0.086,2.1343 0.3908,3.3301 1.0635,2.6572 0.6726,-0.6725 0.7448,-2.4186 0.1607,-3.8802 z m 0,-56.6879 c -0.6464,-1.6151 -1.1261,-1.1353 -1.2234,1.2232 -0.086,2.1343 0.3908,3.3299 1.0635,2.6572 0.6726,-0.6727 0.7448,-2.4188 0.1607,-3.8804 z m 587.4315,-55.0534 c 1.0503,-5.4576 -3.2757,-7.4776 -14.85,-6.9336 l -10.1228,0.4754 -5.3,-15.5081 -5.2996,-15.508 42.2135,-0.6174 42.2137,-0.6176 6.6143,-6.6173 6.6143,-6.6173 0.5348,-93.5987 c 0.4918,-86.0499 0.2467,-94.168 -3.0368,-100.6566 -1.9645,-3.882 -5.8492,-8.1958 -8.6331,-9.5869 -3.8744,-1.936 -33.2159,-2.5359 -125.1175,-2.5589 -128.5033,-0.032 -128.6127,-0.025 -133.967,9.981 -1.3454,2.514 -2.0845,37.8767 -2.0845,99.7444 0,85.3371 0.362,96.3666 3.3015,100.5631 6.2764,8.9609 13.8569,10.3595 56.1487,10.3595 h 39.3345 l -5.576,15.6645 -5.576,15.6645 -7.3278,-0.6315 c -4.0304,-0.3472 -9.1709,-0.046 -11.4232,0.6684 -3.9544,1.2552 -5.5451,7.0009 -2.7204,9.8258 0.7564,0.7564 33.3145,1.1359 72.351,0.8436 67.6312,-0.5067 71.0104,-0.711 71.7084,-4.3383 z m -111.0169,-8.1973 c 0,-1.0345 2.0015,-8.0951 4.4475,-15.6903 l 4.4478,-13.8094 h 28.5592 28.5591 l 4.4477,13.8094 c 2.4462,7.5952 4.4477,14.6558 4.4477,15.6903 0,1.0904 -15.7415,1.8811 -37.4545,1.8811 -21.7132,0 -37.4545,-0.7907 -37.4545,-1.8811 z m -86.6515,-44.0765 c -1.3754,-1.3756 -2.4294,-7.9634 -2.4294,-15.1844 v -12.7547 h 126.5354 126.5354 v 11.2682 c 0,21.0784 13.0708,19.1003 -126.2018,19.1003 -92.1973,0 -122.6037,-0.5936 -124.4396,-2.4294 z m -2.4294,-114.9242 c 0,-73.9195 0.1501,-76.9426 3.9159,-78.9581 2.5723,-1.3766 44.862,-2.0958 123.2507,-2.0958 108.4976,0 119.5869,0.3036 122.1131,3.3453 2.2221,2.6754 2.8943,18.4957 3.3554,78.9581 l 0.5766,75.6128 h -126.6058 -126.6059 z m 588.7132,123.7395 c 2.0295,-1.2878 2.4742,-12.6235 2.0244,-51.597 -0.3172,-27.4706 -0.3677,-49.946 -0.1112,-49.9451 0.2553,7e-4 4.3551,4.3255 9.1104,9.6104 20.4188,22.6923 21.7238,23.7338 25.2824,20.1753 2.9771,-2.9772 2.8155,-3.7976 -1.9586,-9.9349 -2.8619,-3.6792 -12.3927,-14.2689 -21.1791,-23.5323 -15.4033,-16.2393 -16.1699,-16.7542 -21.3975,-14.3723 -6.4557,2.9414 -36.8871,39.2695 -36.8871,44.0349 0,7.9588 7.0549,3.7659 21.408,-12.7225 l 15.0342,-17.2711 0.5148,51.1029 c 0.2833,28.1063 0.9378,52.2415 1.4549,53.6333 1.0838,2.9183 3.0225,3.1549 6.7051,0.8184 z m -976.027,-9.8903 c -0.5134,-1.9701 -0.9671,-0.8485 -1.0084,2.4921 -0.041,3.3405 0.3788,4.952 0.9334,3.5816 0.5545,-1.3707 0.5882,-4.1039 0.074,-6.0737 z m -0.062,-29.3947 c -0.5616,-1.3921 -1.0211,-0.2531 -1.0211,2.5306 0,2.7838 0.4595,3.9226 1.0211,2.5308 0.5616,-1.3921 0.5616,-3.6696 0,-5.0614 z m 927.408,1.0518 c 3.31,-1.2701 3.3279,-8.641 0.021,-8.6539 -34.929,-0.136 -54.0863,-1.6216 -61.2431,-4.7518 -10.0576,-4.3987 -20.3985,-14.1406 -25.4844,-24.0078 -4.331,-8.4024 -5.1946,-26.1787 -1.7186,-35.3787 4.7046,-12.4515 19.5377,-23.1712 35.8137,-25.8814 9.1595,-1.5254 9.1985,-1.5873 11.4333,-18.1291 2.1442,-15.8708 21.4433,-31.609 38.5912,-31.4703 4.4964,0.037 13.1862,1.9034 19.3106,4.149 6.1244,2.2457 14.5339,4.3719 18.6882,4.7249 7.0141,0.5963 8.1213,-0.1112 15.5211,-9.9119 18.0207,-23.8681 34.1039,-21.7569 48.4478,6.3593 3.8172,7.4823 5.1824,8.4422 13.8577,9.7433 15.0148,2.2513 24.4458,6.9083 32.0994,15.8498 7.8689,9.1929 11.0528,18.2991 11.0696,31.6587 0.019,8.1499 0.9367,9.8494 9.9331,18.2211 15.9245,14.8184 17.8217,32.7028 4.7885,45.1366 -9.3074,8.8795 -15.6333,10.2199 -52.1431,11.0505 -35.396,0.8052 -41.9052,2.3261 -34.4393,8.0482 5.5333,4.241 69.1407,2.6572 79.9704,-1.9911 10.9994,-4.7214 18.3851,-11.4433 22.4801,-20.4591 7.3434,-16.1689 3.9122,-31.3257 -10.4689,-46.2458 -8.9782,-9.3148 -9.9887,-11.2933 -10.0065,-19.5918 -0.026,-12.3911 -7.4402,-27.6482 -18.1072,-37.2651 -9.6599,-8.7089 -17.2051,-12.3331 -30.0974,-14.4566 -5.3316,-0.8782 -9.2168,-2.745 -9.9529,-4.7818 -2.6498,-7.3318 -13.4227,-20.3111 -19.6354,-23.6567 -4.7136,-2.5386 -9.4372,-3.269 -16.6546,-2.5757 -11.1707,1.0735 -19.1227,6.0257 -27.0068,16.8196 -2.7836,3.811 -6.1192,7.3599 -7.412,7.8862 -1.2928,0.5263 -8.5812,-1.2419 -16.1966,-3.929 -7.6152,-2.6874 -17.6032,-4.9054 -22.1957,-4.9289 -24.2882,-0.1236 -47.6668,18.6859 -50.5872,40.7025 -1.0978,8.2751 -2.0029,9.876 -5.6036,9.9133 -6.7827,0.071 -21.8839,7.6787 -29.2728,14.7481 -10.9438,10.4712 -15.3625,20.7701 -15.369,35.8218 -0.021,27.5548 19.8183,50.8956 48.1291,56.6494 8.8949,1.8074 49.1067,2.2475 53.4405,0.5842 z m 574.6941,-108.6576 c 4.0821,-4.0821 6.8835,-8.9022 6.8835,-11.8438 0,-6.3026 -8.0977,-17.2326 -25.08,-33.8529 -7.3628,-7.2056 -13.3833,-14.0385 -13.3793,-15.1842 0,-1.1458 5.4706,-6.4983 12.1474,-11.8945 11.8875,-9.6074 14.408,-14.4426 9.886,-18.9644 -1.2396,-1.2396 -27.6957,-13.8796 -58.791,-28.0889 -55.6788,-25.4427 -56.4437,-25.874 -50.3848,-28.4216 5.7698,-2.426 8.1333,-7.3929 4.5667,-9.597 -3.3488,-2.0698 -20.7824,3.2328 -23.5309,7.157 -3.567,5.0923 0.1236,19.2626 21.8553,83.942 18.8251,56.0256 19.5234,57.4353 28.445,57.4353 5.8955,0 8.2661,-1.6843 16.8795,-11.9925 l 10.0206,-11.9925 11.8621,14.2402 c 16.8151,20.1865 24.3348,25.9413 33.8969,25.9413 6.216,0 9.265,-1.4254 14.723,-6.8835 z m -27.9574,-14.8805 c -6.0472,-6.4028 -15.6746,-16.6522 -21.3942,-22.7764 -12.1102,-12.967 -12.6234,-12.8851 -26.5665,4.2443 -4.8979,6.017 -9.5797,11.2098 -10.4038,11.5397 -1.9722,0.789 -26.3078,-66.5706 -37.2346,-103.0622 l -2.7943,-9.3325 47.8899,22.1747 c 26.3394,12.1959 49.5215,22.6612 51.5158,23.256 5.2645,1.57 3.4694,4.5275 -8.85,14.5822 -6.0348,4.9254 -10.9724,10.5375 -10.9724,12.4713 0,1.9339 9.3383,13.6317 20.7519,25.9952 11.4134,12.3634 20.7517,23.3263 20.7517,24.3621 0,1.9264 -7.9138,8.1868 -10.349,8.1868 -0.7421,0 -6.2971,-5.2385 -12.3445,-11.6412 z m -1414.3978,11.9017 c 1.8632,-0.143 6.1908,-2.6191 9.6167,-5.5018 l 6.2291,-5.2416 v -115.4223 -115.4227 l -6.8836,-6.8836 -6.8835,-6.8835 h -126.706 -126.7059 l -6.6117,5.9067 -6.6118,5.9064 -0.557,111.9888 c -0.393,79.0149 0.1095,113.5953 1.7035,117.4454 3.3845,8.1711 9.1645,12.4444 18.6658,13.8002 6.8504,0.9777 232.3505,1.2617 244.7444,0.3084 z m -251.1854,-13.1654 c -1.6388,-1.9744 -2.4453,-29.5946 -2.7788,-95.1547 l -0.4697,-92.3727 130.0784,2e-4 h 130.0783 v 92.7252 c 0,69.42 -0.6105,93.3357 -2.4294,95.1545 -3.8202,3.8202 -251.3004,3.4774 -254.4788,-0.3525 z m 133.6878,-90.1447 c 8.7551,-22.7151 15.9185,-42.5306 15.9185,-44.0344 0,-2.57 -0.8356,-3.0445 -6.2408,-3.5438 -2.1832,-0.2024 -31.5751,73.5734 -33.6636,84.4976 -0.9684,5.0651 -0.5576,5.6615 3.4846,5.0614 3.9442,-0.5857 6.8004,-6.4344 20.5013,-41.9808 z m 49.8299,16.0776 c 9.1866,-7.9579 16.7028,-16.037 16.7028,-17.9532 0,-5.3044 -31.3284,-35.6118 -35.2542,-34.1053 -5.4421,2.0884 -3.7202,5.3171 10.8472,20.3407 l 14.0597,14.5 -6.4677,4.4986 c -3.557,2.4744 -11.4637,8.94 -17.5703,14.3685 -9.6846,8.6088 -10.7562,10.2867 -8.3918,13.1359 3.4991,4.216 5.3549,3.1636 26.0743,-14.7852 z m -90.5485,10.9894 c 2.185,-2.6327 0.3854,-5.1416 -11.9805,-16.7026 l -14.5516,-13.6046 17.1989,-14.1719 c 9.4593,-7.7945 17.2397,-15.6689 17.2897,-17.4984 0.2128,-7.791 -6.3725,-5.0204 -23.5786,9.92 -20.2544,17.5873 -21.0869,18.5251 -20.3763,22.9489 0.4373,2.7226 30.3207,32.2068 32.6429,32.2068 0.4312,0 1.9414,-1.3941 3.3555,-3.0982 z m -95.2054,-149.3516 c 0,-8.7958 0.9835,-15.7631 2.4296,-17.2088 1.8365,-1.8367 32.638,-2.4296 126.2215,-2.4296 143.015,0 130.4933,-2.0064 130.4933,20.9112 v 13.5066 h -129.5721 -129.5723 z m 1536.3929,177.5038 c 4.9548,-0.9911 6.3267,-2.308 6.3267,-6.0737 v -4.8083 h -26.9267 c -18.2436,0 -27.7102,-0.7836 -29.3562,-2.4295 -3.1908,-3.1908 -3.5074,-171.96 -0.3336,-177.8902 2.0348,-3.8021 5.4928,-3.9159 119.0622,-3.9159 90.3839,0 117.7506,0.5752 120.4161,2.5308 3.1733,2.328 3.4069,9.6633 2.9179,91.6115 l -0.5319,89.081 -8.4466,0.6148 c -9.2422,0.6725 -13.5829,4.1294 -11.6174,9.2512 2.4622,6.4165 25.2038,2.6147 29.2172,-4.8846 1.2087,-2.2586 1.9819,-39.3534 1.9819,-95.0973 v -91.3945 l -5.918,-5.9179 -5.9181,-5.9177 h -121.2767 -121.2767 l -4.9083,5.2244 -4.9081,5.2245 v 93.1421 93.1424 l 5.6806,4.8861 c 5.2475,4.5141 7.3484,4.8862 27.5846,4.8862 12.0473,0 24.7512,-0.5695 28.2311,-1.2654 z m 101.0763,-110.4907 c 3.3595,-3.3596 3.0393,-7.5864 -0.6827,-9.0148 -3.5244,-1.3524 -11.0597,4.5895 -11.0597,8.7212 0,3.3784 8.4462,3.5898 11.7424,0.2936 z m -20.1885,-12.5127 c 0.8905,-7.7693 -2.6584,-11.2633 -7.0152,-6.9065 -2.251,2.251 -2.8608,4.9741 -1.9377,8.6521 1.8288,7.2865 8.0568,6.0721 8.9529,-1.7456 z m -1193.864,1938.2833 c -9.7353,-2.3001 -13.0177,-6.4818 -13.2448,-16.8733 -0.2324,-10.644 4.773,-17.5326 12.7703,-17.5747 11.6066,-0.061 13.9799,-1.9594 18.247,-14.5949 l 4.1153,-12.1865 -6.1095,-8.5076 c -7.1816,-10.0001 -6.2637,-15.3051 4.1662,-24.0814 7.995,-6.7274 11.259,-6.7416 21.045,-0.091 l 7.7937,5.2961 10.3912,-4.6438 c 13.0379,-5.8267 17.4771,-10.6741 17.4771,-19.0843 0,-3.6378 1.2256,-7.631 2.7236,-8.8743 8.7777,-7.2848 28.9162,-3.7066 30.7572,5.4649 2.7733,13.816 4.0023,15.4503 15.9178,21.1626 l 11.8675,5.6896 7.4362,-5.1535 c 10.0468,-6.9623 14.1846,-6.5084 23.0043,2.5242 9.2413,9.4638 9.5333,15.3357 1.1909,23.9429 l -6.3061,6.5064 3.5597,9.7865 c 4.3856,12.0588 9.5424,16.8728 18.0736,16.8728 9.3543,0 13.2492,5.2408 13.2492,17.8277 0,15.1371 -3.3345,16.7861 -36.6786,18.1385 l -26.5466,1.0767 1.7502,-4.8558 c 0.9627,-2.6704 1.6818,-9.8663 1.5985,-15.9906 -0.3827,-28.0664 -25.8076,-48.4681 -53.3518,-42.8113 -14.9806,3.0767 -24.4133,9.852 -31.2795,22.4674 -4.9494,9.0938 -5.6329,12.2282 -4.8088,22.052 0.5282,6.2985 1.6398,13.0459 2.4707,14.9946 1.3903,3.2616 -0.3165,3.5266 -21.4827,3.3356 -12.6463,-0.1133 -26.0546,-0.9304 -29.7968,-1.8146 z m 63.1489,-3.2784 c -4.4351,-6.7691 -4.4572,-22.0487 -0.044,-30.4762 8.0224,-15.3184 29.4885,-21.3541 46.3216,-13.0242 4.8005,2.3756 10.5055,6.7699 12.6781,9.7653 4.6571,6.4213 6.5467,25.2269 3.3628,33.4679 l -2.1511,5.5675 h -28.3474 c -28.3437,0 -28.3478,-8e-4 -31.8204,-5.3003 z m 288.8435,-20.0067 v -25.3071 h 146.7811 146.7811 v 25.3071 25.307 h -46.6363 c -38.3537,0 -47.4719,-0.5476 -51.3412,-3.0828 -4.6243,-3.0299 -11.3491,-2.2746 -11.3491,1.2749 0,0.9943 -4.5233,1.8079 -10.0516,1.8079 -7.9797,0 -10.4984,-0.8347 -12.2188,-4.0491 -1.1917,-2.227 -3.5869,-4.0491 -5.322,-4.0491 -1.7355,0 -3.6318,1.8221 -4.2142,4.0491 -0.9325,3.5663 -2.7615,4.0491 -15.3414,4.0491 -10.3672,0 -15.2832,-0.9057 -17.933,-3.3036 -3.3759,-3.0553 -4.0298,-3.0553 -8.6926,0 -4.3366,2.8414 -12.4162,3.3036 -57.752,3.3036 h -52.71 z m 424.1726,23.3242 c -1.8336,-2.9664 2.0349,-8.9579 7.7622,-12.0231 4.4731,-2.3941 5.8982,-2.1954 12.2002,1.6994 l 7.1357,4.4101 10.2266,-4.3994 c 9.2166,-3.9649 10.2266,-5.0346 10.2266,-10.8312 0,-8.3469 3.1671,-11.2906 12.1474,-11.2906 8.6822,0 12.1474,2.9326 12.1474,10.2798 0,6.1627 2.3971,8.6361 12.4333,12.8296 6.5246,2.7261 7.7197,2.616 15.7244,-1.4492 l 8.6631,-4.3995 5.9434,6.6519 c 3.2688,3.6584 5.4075,7.5186 4.7527,8.5783 -1.6255,2.6301 -117.7366,2.5756 -119.363,-0.057 z m 659.3762,-18.769 c -0.8354,-2.5054 -1.4962,-41.453 -1.4685,-86.5502 l 0.051,-81.9949 84.0195,0.4363 c 46.2107,0.2399 84.7027,0.4677 85.5379,0.5061 0.8352,0.039 1.5185,38.7897 1.5185,86.1139 v 86.0441 h -84.0698 -84.0695 z m -1083.5481,-63.0199 c 0,-14.3517 0.8018,-21.6675 2.5306,-23.0849 3.1743,-2.6025 283.338,-4.5496 287.8927,-2.0008 2.5372,1.42 3.1387,6.005 3.1387,23.9263 v 22.1696 h -146.7811 -146.7809 z m 35.2642,3.5847 c 4.4193,-1.6957 4.1731,-12.2921 -0.3405,-14.6572 -6.0611,-3.176 -12.6535,0.7594 -12.6535,7.5539 0,7.2748 5.1749,10.1038 12.994,7.1033 z m 41.2643,-1.2005 c 3.5819,-3.5819 2.9617,-8.6089 -1.5678,-12.7078 -3.743,-3.3875 -4.3222,-3.4045 -9.1106,-0.2673 -8.2193,5.3856 -5.6193,15.4045 3.9973,15.4045 2.3385,0 5.3449,-1.0932 6.6811,-2.4294 z m -896.4779,-85.6392 v -81.995 h 39.3445 39.3449 l 0.1964,77.8829 c 0.1923,75.717 0.083,77.9972 -3.9148,81.995 -3.8197,3.8197 -6.6306,4.112 -39.542,4.112 h -35.4299 z m 1901.9516,-48.6639 c 0.095,-11.2548 0.9253,-15.7619 3.1654,-17.1777 1.7832,-1.127 37.094,-1.9322 85.5379,-1.9504 l 82.501,-0.03 v 17.2088 17.2088 h -85.6663 -85.6665 z m -1901.9516,-63.6996 v -18.2211 h 36.1283 c 43.491,0 42.8298,-0.3385 42.8298,21.9235 v 14.5187 h -39.4792 -39.4789 z m 2019.231,-127.728 c -20.7837,-6.0235 -37.1806,-26.8533 -37.1806,-47.2318 0,-21.4218 17.1391,-38.3427 39.479,-38.9769 6.6812,-0.1904 12.7809,-0.4175 13.5555,-0.5061 0.7744,-0.088 4.7839,-6.5857 8.9102,-14.4379 7.2933,-13.8792 17.652,-24.8505 25.3678,-26.8683 3.6501,-0.9544 3.793,1.481 3.793,64.6171 v 65.6088 l -23.7886,-0.1822 c -13.0838,-0.1012 -26.6451,-1.0105 -30.1363,-2.0223 z m -1997.6154,-385.8358 c -6.491,-4.8907 -11.8074,-7.2993 -15.857,-7.1843 l -6.0919,0.1748 1.2652,-24.6702 c 1.5738,-30.6947 1.5736,-45.8796 0,-79.5589 l -1.2414,-26.5448 8.9008,-1.0031 c 4.8958,-0.5519 13.7021,-3.4149 19.5701,-6.362 5.8679,-2.9474 11.3403,-4.9439 12.1606,-4.4369 0.8205,0.5072 3.148,4.5948 5.1721,9.0835 l 3.6803,8.1615 -5.3531,8.0895 c -5.8944,8.9068 -6.3072,11.7474 -3.2867,22.6215 2.1211,7.6361 6.0771,10.2299 19.7142,12.9244 7.2312,1.4286 10.6121,5.9317 10.6121,14.1339 0,8.4196 -3.4179,12.7687 -15.3071,19.4787 -17.9341,10.1212 -21.7537,20.2161 -12.0244,31.7785 2.7836,3.3082 4.9897,7.2503 4.9022,8.7597 -0.2663,4.5918 -11.0462,20.9294 -14.145,21.4372 -1.5976,0.262 -7.299,-2.8348 -12.6698,-6.8814 z m 2016.4161,-184.9148 c -9.6394,-8.4633 -10.157,-12.5387 -2.8707,-22.5972 l 6.1505,-8.4904 -3.9217,-12.2924 -3.9219,-12.2924 -9.9669,-0.6356 c -12.9213,-0.8241 -15.1312,-2.9285 -15.1312,-14.4094 0,-12.3275 2.9176,-15.8108 14.8817,-17.7669 9.4841,-1.5507 9.9522,-1.9525 13.6643,-11.7284 4.9368,-13.002 4.8577,-14.411 -1.2144,-21.6274 -6.675,-7.9328 -6.3964,-10.8479 1.8221,-19.0665 8.2097,-8.2097 12.3284,-8.5594 21.4604,-1.822 3.7732,2.7836 8.5054,5.0613 10.5162,5.0613 3.2521,0 3.6558,1.9991 3.6558,18.1053 0,14.5694 -0.8044,19.4686 -4.1183,25.0855 -6.8361,11.5863 -7.2379,24.882 -1.1114,36.7797 4.6898,9.1071 5.2135,12.408 5.2212,32.8991 0,19.4861 -0.4572,22.7765 -3.2153,22.7765 -1.7728,0 -5.54,1.822 -8.3712,4.049 -7.3908,5.8136 -15.3828,5.1248 -23.5292,-2.0278 z m -2038.0317,-123.4952 v -16.1967 h 18.7272 18.7273 l 3.7919,12.6508 c 2.0857,6.9577 4.2419,14.2451 4.7914,16.1936 0.9105,3.2284 -1.0897,3.5431 -22.5192,3.5431 h -23.5186 z m 1.4639,-27.5548 c -0.8052,-0.8053 -1.4639,-8.1453 -1.4639,-16.3109 v -14.8469 h 68.3493 68.3496 l -1.0411,14.0117 c -0.5727,7.7066 -1.7952,14.7672 -2.7169,15.6905 -2.0709,2.0744 -129.4478,3.4846 -131.477,1.4556 z m -0.9816,-119.7325 0.53,-78.4519 63.3465,-0.5352 c 40.8985,-0.3456 64.737,0.209 67.2697,1.5644 3.7598,2.0123 3.9459,5.2974 4.4763,78.988 l 0.5533,76.888 -68.353,-5e-4 -68.3526,-9e-4 z m 1878.8661,-99.3267 c -1.8841,-1.1969 -2.6191,-21.774 -3.0368,-85.0015 l -0.551,-83.4222 98.6977,8e-4 98.6976,7e-4 v 36.6899 c 0,41.1689 1.6564,38.4617 -15.0425,24.585 -4.3762,-3.6363 -9.6147,-6.6116 -11.6412,-6.6116 -7.3723,0 -3.4762,7.32 10.8583,20.4014 l 14.5911,13.3159 -15.5796,12.7867 c -8.5684,7.0327 -15.5792,13.5355 -15.5792,14.4509 0,0.9152 1.7352,2.5928 3.8559,3.7278 3.1678,1.6953 5.8225,0.444 14.883,-7.015 6.0649,-4.993 11.6183,-9.0782 12.3406,-9.0782 0.7225,0 1.3136,15.0325 1.3136,33.4055 v 33.4052 l -95.6607,-0.03 c -52.6134,-0.021 -96.7794,-0.7416 -98.1468,-1.6103 z m 118.4303,-45.4298 c 3.9304,-4.8468 29.0169,-66.7833 28.3829,-70.0753 -0.9768,-5.0721 -8.199,-3.9427 -11.1639,1.7462 -1.4508,2.7838 -8.1719,18.5363 -14.9355,35.0058 -9.9336,24.1876 -11.8263,30.5124 -9.8455,32.8991 3.0033,3.6185 4.8859,3.7243 7.562,0.4242 z m -21.9279,-8.2177 c -0.092,-3.2213 -4.2493,-7.1385 -15.1843,-14.3054 -8.282,-5.4282 -15.0583,-10.5559 -15.0583,-11.395 0,-0.8392 7.7439,-6.7317 17.2088,-13.0947 11.5364,-7.7556 17.2088,-12.8418 17.2088,-15.4306 0,-6.7458 -6.9391,-4.3676 -26.7724,9.1746 -26.0865,17.8126 -26.498,18.4117 -17.7243,25.8223 12.06,10.1867 36.67,25.999 38.604,24.8038 1.0139,-0.6266 1.7869,-3.1353 1.7177,-5.575 z m -1956.1113,-62.2982 c -2.3139,-1.3477 -3.5431,-4.5392 -3.5431,-9.1995 0,-6.4052 -0.8268,-7.4828 -8.0775,-10.5282 l -8.0778,-3.3927 -0.021,-15.8702 -0.021,-15.8705 6.1659,5.1882 c 13.2798,11.1741 31.5811,11.3827 43.9743,0.5012 13.1626,-11.5568 16.024,-26.6025 7.9592,-41.8525 -10.4421,-19.7467 -36.3587,-23.9512 -52.5318,-8.5221 l -5.5676,5.3115 v -17.5719 -17.5715 l 7.5922,-3.5627 c 5.9174,-2.7768 7.7432,-4.9016 8.2774,-9.6327 0.9692,-8.5854 3.7866,-11.1312 12.3173,-11.1312 8.9217,0 12.3046,2.9024 12.3046,10.5574 0,4.2463 1.6767,6.7335 6.5798,9.7598 10.5728,6.526 14.8493,6.8766 21.9769,1.8016 5.9082,-4.2073 6.9005,-4.3475 11.6991,-1.6541 2.8838,1.6186 6.1099,5.407 7.169,8.4185 1.601,4.5523 1.1104,6.3434 -2.9089,10.6219 -4.5736,4.8682 -4.6974,5.6599 -2.2927,14.6513 1.3984,5.2278 2.8342,9.797 3.1911,10.1539 0.357,0.3569 4.1782,1.176 8.4918,1.8204 9.0674,1.3546 12.9046,5.2407 12.9046,13.0697 0,7.1199 -4.841,11.9051 -12.0443,11.9051 -6.5348,0 -8.69,2.1744 -12.3184,12.4271 -2.3688,6.6942 -2.2075,7.8732 1.7674,12.9266 5.6019,7.1217 5.5241,11.3269 -0.3118,16.8093 -5.8432,5.4893 -10.2773,5.5559 -17.7066,0.2658 l -5.8086,-4.1361 -10.1941,4.3853 c -9.3341,4.0155 -10.1943,4.9565 -10.1943,11.151 0,4.6167 -1.2437,7.4311 -3.9161,8.8613 -4.9219,2.6339 -12.2251,2.5947 -16.8358,-0.092 z m -4.4189,-54.3926 c -7.4775,-4.9292 -11.1079,-11.3957 -11.1999,-19.9486 -0.1571,-14.7732 10.4312,-24.7003 26.3497,-24.7003 6.8548,0 9.6681,1.267 15.2848,6.8834 5.9465,5.9466 6.8834,8.2275 6.8834,16.7585 0,5.6715 -1.3448,11.7949 -3.1597,14.3859 -7.3004,10.4226 -23.5989,13.5819 -34.1583,6.6211 z m 1861.0765,-31.485 0.6365,-21.2622 h 98.061 98.0613 v 21.258 21.2579 h -98.6976 -98.6977 z m 89.8616,-151.2393 c -1.3362,-1.3362 -2.4294,-5.8706 -2.4294,-10.0764 0,-8.3422 -2.9845,-11.2405 -16.3822,-15.91 -6.677,-2.3273 -7.8969,-2.1095 -14.9186,2.6618 -8.4432,5.7375 -11.5526,5.3841 -19.8195,-2.2533 -6.868,-6.3448 -6.9462,-9.2648 -0.4983,-18.5692 l 5.0694,-7.315 -3.7358,-10.9903 c -3.5802,-10.533 -4.0952,-11.0519 -12.3713,-12.4648 -11.988,-2.0463 -14.2771,-4.552 -14.2771,-15.6265 0,-11.4172 2.5002,-14.3289 12.3042,-14.3289 8.9354,0 10.6794,-1.9158 14.0791,-15.4642 2.4395,-9.7232 2.3243,-10.7664 -1.7639,-15.9636 -6.0202,-7.6536 -5.5047,-11.9383 2.4852,-20.6568 7.4454,-8.1242 7.3933,-8.1264 21.9007,0.9863 5.2858,3.3204 5.8701,3.248 16.7028,-2.0649 10.749,-5.2717 11.2253,-5.8393 11.2253,-13.3776 0,-9.7314 3.263,-12.6177 14.7677,-13.0631 11.3543,-0.4394 15.6008,3.009 15.6008,12.6687 0,7.1378 0.548,7.7402 12.0411,13.2334 l 12.0409,5.7551 7.0572,-5.383 c 9.2216,-7.0334 11.7356,-6.8019 19.2652,1.7736 7.5975,8.6531 7.8566,12.9337 1.2577,20.7759 -4.979,5.9173 -4.9952,6.0651 -1.7377,15.8458 4.453,13.3706 6.023,14.9344 14.9947,14.9344 9.3399,0 14.039,5.4365 14.039,16.242 0,8.5443 -2.9295,12.0908 -10.0216,12.1317 -9.2058,0.053 -14.9201,4.547 -18.4974,14.5463 -3.3434,9.3448 -3.3222,9.5908 1.4275,16.5808 6.2591,9.2111 6.0788,12.4375 -1.0968,19.6129 -7.0549,7.0551 -16.0126,7.8368 -21.4136,1.869 -4.5914,-5.0735 -6.1595,-5.0513 -18.9635,0.2699 -10.1534,4.2195 -10.3927,4.5134 -10.3927,12.7547 0,10.9677 -2.6579,13.2947 -15.1843,13.2947 -5.6788,0 -11.4186,-1.0932 -12.7548,-2.4294 z m 27.4704,-53.343 c 16.9903,-7.0989 25.6065,-21.4025 24.3912,-40.4909 -1.398,-21.9541 -16.8654,-36.3209 -39.1068,-36.3237 -14.7757,0 -23.7071,4.6333 -32.1925,16.7067 -22.3963,31.8657 11.2658,75.0003 46.9081,60.1079 z m -27.3273,-10.965 c -14.8689,-6.7498 -20.6934,-23.1456 -13.953,-39.2775 10.6699,-25.5363 49.4021,-21.3191 55.53,6.0463 3.4252,15.2953 -5.5006,31.2284 -19.7044,35.1742 -9.8451,2.7349 -11.9863,2.5447 -21.8726,-1.943 z m -672.1979,-157.2584 c -1.3918,-0.5877 -2.5306,-4.0402 -2.5306,-7.6721 0,-7.441 -4.1782,-12.1488 -13.7406,-15.4823 -5.4511,-1.9003 -7.2651,-1.6061 -12.3286,1.9994 -7.5981,5.4105 -10.6623,5.3233 -16.0938,-0.4585 -5.2753,-5.615 -5.5024,-9.2652 -1.059,-17.0075 3.0168,-5.2567 3.0511,-6.7052 0.3497,-14.8424 -2.7305,-8.2248 -3.6331,-9.0714 -10.275,-9.6362 -9.2674,-0.788 -12.061,-4.2356 -11.2633,-13.9008 0.4869,-5.9 1.5898,-7.8583 4.6859,-8.3185 11.473,-1.705 13.5571,-2.9253 16.3298,-9.5615 3.996,-9.5635 3.6367,-15.9109 -1.1456,-20.2387 -5.3171,-4.812 -5.117,-6.7623 1.3911,-13.5551 6.334,-6.6111 8.1637,-6.849 17.7008,-2.3012 6.6758,3.1833 7.553,3.1648 15.2965,-0.3271 5.7286,-2.5832 8.5589,-5.2901 9.3524,-8.9446 2.2841,-10.5202 2.3139,-10.5417 13.4305,-9.9024 10.4044,0.5984 10.6665,0.7663 11.2891,7.2319 1.0842,11.2596 17.4225,18.1542 27.4504,11.5835 7.0058,-4.5904 14.5266,-2.5594 18.4228,4.9747 2.8923,5.5929 2.7764,6.2423 -2.159,12.1078 l -5.2153,6.198 3.5611,9.3251 c 3.525,9.2291 6.3803,11.4916 17.5027,13.8686 3.6358,0.7771 5.9575,2.8602 6.7627,6.0677 2.1224,8.4572 -0.692,13.0181 -8.8707,14.3746 -11.6868,1.9384 -11.8622,2.0788 -15.336,12.2745 -3.1535,9.2546 -3.1228,9.8116 0.7682,13.9536 5.4226,5.7719 5.2161,14.1438 -0.4466,18.1102 -6.0555,4.2414 -10.1124,3.9687 -16.5737,-1.114 -5.4159,-4.2602 -5.4353,-4.2605 -14.9512,-0.3674 -9.012,3.6872 -9.5831,4.3846 -10.5405,12.8703 l -1.0123,8.9716 -9.1105,0.3937 c -5.0108,0.2163 -10.2494,-0.087 -11.6414,-0.6749 z m 23.1486,-45.1572 c 5.2013,-2.3614 10.5733,-7.0229 13.9186,-12.0783 4.7048,-7.1092 5.3209,-9.7666 4.5157,-19.4761 -1.5243,-18.3825 -12.4365,-29.364 -30.6822,-30.8771 -20.7428,-1.72 -35.7015,11.5964 -35.7015,31.782 0,26.5439 23.6689,41.6733 47.9494,30.6495 z m -27.3027,-9.4617 c -8.8006,-4.486 -13.2956,-13.3522 -11.9302,-23.5324 1.2521,-9.336 5.9176,-15.1796 15.2818,-19.1409 17.5267,-7.4145 37.8,9.0672 33.7627,27.4483 -3.1865,14.5081 -22.7646,22.5393 -37.1143,15.225 z m -739.3678,37.2207 c -4.1342,-2.1751 -5.1746,-4.4166 -5.6786,-12.2368 -0.6609,-10.2496 -1.421,-10.982 -18.9606,-18.2778 -7.1084,-2.9569 -7.7179,-2.8787 -14.0592,1.7998 -9.4186,6.949 -16.9281,6.3568 -25.2779,-1.993 -3.786,-3.7859 -6.8835,-8.1771 -6.8835,-9.7583 0,-1.5813 3.1366,-6.5394 6.9703,-11.0181 l 6.9702,-8.1434 -4.2938,-11.6562 c -2.3618,-6.4112 -5.2707,-11.9452 -6.4642,-12.2979 -1.1935,-0.3527 -4.699,-1.1962 -7.7893,-1.8742 -9.1274,-2.0027 -13.6143,-8.016 -13.6143,-18.246 0,-8.3786 0.6817,-9.5378 9.6166,-16.3552 5.2892,-4.0353 10.3452,-8.6324 11.2358,-10.2155 1.2857,-2.2856 7.7462,-2.8736 31.3808,-2.8557 l 29.7617,0.023 -6.6359,5.2295 c -15.662,12.3429 -19.6023,34.1734 -9.2051,51.0007 15.1918,24.5874 50.3175,25.7908 67.3294,2.3066 11.7267,-16.1883 9.7302,-34.8898 -5.3353,-49.9773 l -8.5921,-8.6043 h 26.7915 c 24.3956,0 27.0124,0.3539 29.2636,3.959 1.3599,2.1775 7.1625,5.3519 12.895,7.0542 14.5169,4.3112 15.9752,5.9856 15.9752,18.3429 0,12.3064 -1.1091,13.5762 -16.2403,18.5943 -10.5712,3.5057 -11.2603,4.1674 -14.8793,14.2905 l -3.7951,10.6148 7.2977,8.0777 c 6.526,7.2234 7.0738,8.6698 5.1811,13.68 -3.2245,8.5351 -12.0281,16.7376 -17.9643,16.7376 -2.8737,0 -8.5767,-2.2775 -12.6735,-5.0614 -8.9935,-6.1113 -8.9335,-6.1087 -21.1206,-0.8846 -11.4777,4.9199 -12.7899,6.5897 -12.8311,16.327 -0.021,4.0395 -1.3982,8.4789 -3.069,9.8656 -4.4804,3.7185 -19.4443,4.6368 -25.3059,1.5529 z m 383.4812,0.6393 c -0.4609,-0.4641 -0.8382,-8.4358 -0.8382,-17.715 v -16.8712 h 33.9115 33.9116 v 17.1164 17.1168 l -33.0735,0.6001 c -18.1902,0.3302 -33.4504,0.2206 -33.9114,-0.2434 z m -110.8261,-46.0456 c -0.7497,-0.7497 -1.3633,-20.799 -1.3633,-44.5538 v -43.1907 h 45.5529 c 50.2861,0 48.1595,-0.6598 42.3899,13.1488 -1.7395,4.1633 -2.6791,8.8297 -2.0882,10.37 2.3657,6.1648 7.0528,2.2855 11.9048,-9.8529 l 5.0577,-12.6536 19.4511,-0.5794 c 10.6984,-0.319 19.4515,-0.053 19.4515,0.5902 0,0.6434 -3.1886,10.3305 -7.086,21.5272 -8.1251,23.3432 -8.4761,26.0393 -3.3887,26.0393 2.8619,0 5.7205,-5.3741 12.6535,-23.7886 l 8.9563,-23.7887 13.833,-0.6025 c 13.0516,-0.5685 13.7598,-0.3732 12.5433,3.4597 -1.0321,3.2522 1.2017,5.9965 11.2017,13.7621 6.87,5.3351 13.512,9.7 14.7603,9.7 4.8115,0 3.5177,-7.3728 -2.0577,-11.7264 -3.1487,-2.4585 -8.4616,-6.9488 -11.8062,-9.9783 l -6.0812,-5.5082 53.1843,-0.058 53.1842,-0.058 -0.5455,44.0343 -0.5457,44.0342 -143.8994,0.5196 c -79.1448,0.2856 -144.5129,-0.094 -145.2626,-0.8437 z m -272.6551,-23.203 c -7.6079,-3.0246 -15.823,-11.7225 -18.3749,-19.4547 -6.8471,-20.7471 13.287,-42.0502 35.7585,-37.8346 13.4532,2.5241 25.1323,16.2917 25.1323,29.6271 0,19.9189 -23.5133,35.2176 -42.5159,27.6622 z m 1340.6866,-6.0686 c -4.323,-1.5992 -4.4727,-2.6063 -4.4727,-30.0638 v -28.4091 h 93.1299 93.1301 v 29.3562 29.3562 l -45.0467,0.037 c -24.7755,0.019 -64.6712,0.3389 -88.6571,0.7075 -23.9858,0.3687 -45.6233,-0.074 -48.0835,-0.9843 z"
                 id="path5"
                 clip-path="url(#clipPath7)" /></g></g></g><rect
           style="mix-blend-mode:normal;fill:url(#linearGradient25);fill-opacity:1;stroke:none;stroke-width:26.4"
           id="rect24"
           width="2128.9207"
           height="5127.4004"
           x="-82.458199"
           y="-1544.217"
           clip-path="url(#clipPath33)"
           transform="matrix(0.99704293,0,0,1.4713532,-0.12191425,727.86448)" /></g></g></g></svg>
