<?xml version="1.0" encoding="UTF-8" standalone="no"?>
<!-- Created with Inkscape (http://www.inkscape.org/) -->

<svg
   width="483.78125"
   height="163.43066"
   viewBox="0 0 483.78125 163.43066"
   version="1.1"
   id="svg1"
   xml:space="preserve"
   xmlns="http://www.w3.org/2000/svg"
   xmlns:svg="http://www.w3.org/2000/svg"><defs
     id="defs1"><clipPath
       clipPathUnits="userSpaceOnUse"
       id="clipPath30"><rect
         style="fill:#3a5fcd;stroke-width:28.2511"
         id="rect31"
         width="923.91077"
         height="2878.311"
         x="-719.48712"
         y="-2349.7458"
         ry="0" /></clipPath></defs><g
     id="layer1"
     transform="translate(1848.5214,-6471.6735)"><g
       id="g1"
       transform="matrix(2.0845508,0,0,2.0845508,-1045.7476,5533.6695)"
       style="fill:#f5f7fa;fill-opacity:1"
       clip-path="url(#clipPath30)"><path
         style="fill:#f5f7fa;fill-opacity:1"
         d="m -365.48617,528.15753 c -5.7054,-0.955 -10.5413,-5.1919 -12.3798,-10.8462 -0.5881,-1.8088 -0.6933,-3.1147 -0.8784,-10.9066 -0.1938,-8.159 -0.2624,-8.9507 -0.8762,-10.1162 -0.9307,-1.7674 -2.3051,-2.9769 -3.9253,-3.4546 l -1.3825,-0.4075 -0.089,-3.1283 -0.089,-3.1283 1.5433,-0.5481 c 2.0845,-0.7404 3.0255,-1.5417 3.9023,-3.3233 0.7053,-1.433 0.7469,-1.9052 0.9259,-10.5102 0.2071,-9.959 0.4584,-11.4313 2.5004,-14.6496 2.6492,-4.1754 7.734,-7.1472 12.2504,-7.1598 h 1.3436 l -5e-4,3.7145 -4e-4,3.7146 -1.9234,0.5652 c -2.2843,0.6713 -4.6295,2.7928 -5.3161,4.809 -0.2989,0.8776 -0.4981,4.022 -0.651,10.2744 -0.1987,8.1206 -0.288,9.1955 -0.9052,10.8919 -0.7668,2.1074 -2.4851,4.1099 -4.1342,4.8179 l -1.0757,0.4618 1.6285,0.9301 c 0.9023,0.5153 1.9909,1.4777 2.4411,2.1578 1.5974,2.4139 1.7869,3.6513 2.0134,13.1441 0.2325,9.7485 0.3466,10.3581 2.3281,12.4469 6.7872,4.6211 5.5954,1.3955 5.5954,10.4727 l -1.0275,-0.043 c -0.5651,-0.024 -1.3831,-0.1026 -1.8177,-0.1754 z"
         id="path23" /><path
         style="fill:#f5f7fa;fill-opacity:1"
         d="m -352.55817,514.26433 c -3.4741,-0.5143 -9.8982,-2.4305 -11.5302,-3.4391 -0.2116,-0.1308 1.4488,-7.647 1.7759,-8.0385 0.06,-0.071 1.2118,0.3863 2.5603,1.0171 3.6686,1.7158 6.026,2.2469 10.0392,2.2614 3.9524,0.014 5.9365,-0.5034 7.7931,-2.0337 1.5388,-1.2685 2.1962,-2.7804 2.2072,-5.0762 0.017,-3.607 -1.3324,-4.8046 -8.3787,-7.4344 -2.5856,-0.965 -5.6378,-2.21 -6.7827,-2.7666 -2.8816,-1.4011 -5.4907,-3.8944 -6.7483,-6.449 -0.9156,-1.8599 -1.0271,-2.4018 -1.149,-5.5885 -0.2715,-7.0911 2.1389,-11.7078 7.5261,-14.4154 4.179,-2.1004 10.9307,-2.5685 16.4774,-1.1425 3.5623,0.9159 5.3386,1.6381 5.3276,2.1662 -0.021,1.0104 -1.8304,7.3373 -2.0799,7.2732 -0.1556,-0.04 -1.5633,-0.5209 -3.1282,-1.0686 -2.4438,-0.8555 -3.3134,-1.0013 -6.1646,-1.0338 -3.9234,-0.045 -6.0176,0.543 -7.4941,2.1031 -1.3902,1.4691 -1.6737,2.1791 -1.6737,4.1922 0,3.9955 1.217,4.9761 10.1315,8.1629 4.3931,1.5704 6.8274,2.8975 8.8444,4.8214 2.8639,2.7316 4.0797,5.7919 4.094,10.3044 0.024,7.7152 -3.8467,13.0003 -11.194,15.2825 -2.5156,0.7814 -8.0452,1.2585 -10.4533,0.9019 z"
         id="path37-9" /><path
         style="fill:#f5f7fa;fill-opacity:1"
         d="m -317.73087,504.54833 c -5.1622,-0.5632 -8.6306,-4.4317 -9.0161,-10.0562 -0.2908,-4.2427 0.78,-7.2394 3.4742,-9.7228 1.93,-1.7791 4.0354,-2.4293 7.3094,-2.2575 2.0707,0.1087 2.8996,0.3119 4.2321,1.0371 3.0111,1.6388 4.5816,4.5384 4.6283,8.5448 l 0.029,2.5295 -7.3501,0.085 c -5.5694,0.064 -7.3484,0.1792 -7.3432,0.4742 0.013,0.7423 1.1779,2.9218 1.9315,3.6146 1.9927,1.8319 5.4684,2.1888 8.6356,0.8868 1.0341,-0.4251 1.898,-0.7418 1.9197,-0.7038 0.022,0.038 0.3136,0.7798 0.6487,1.6484 0.3352,0.8685 0.6496,1.665 0.6988,1.7699 0.049,0.1049 -0.7708,0.5768 -1.8222,1.0487 -2.156,0.9675 -5.2665,1.3971 -7.9762,1.1014 z m 6.1263,-14.0348 c -0.2686,-2.4227 -2.0509,-4.0101 -4.7116,-4.1963 -1.5198,-0.1063 -2.0027,-0.01 -2.9114,0.6129 -1.2283,0.8348 -2.0619,2.1404 -2.3431,3.6702 l -0.1904,1.0352 5.1308,-0.087 5.1309,-0.087 z m 46.0718,14.0513 c -3.7952,-0.6093 -5.9088,-3.2976 -5.5925,-7.1128 0.1867,-2.2504 1.3281,-3.9484 3.3103,-4.9244 1.3784,-0.6786 1.9307,-0.7491 5.8337,-0.7447 l 4.3112,0.01 -0.1355,-1.2694 c -0.2572,-2.4088 -1.8364,-3.585 -4.864,-3.6226 -1.5907,-0.02 -4.9331,0.7599 -5.5882,1.3035 -0.5614,0.466 -0.5859,0.4181 -0.9976,-1.9536 -0.434,-2.4996 -0.3491,-2.5928 3.0507,-3.3491 1.6482,-0.3667 3.2009,-0.4799 5.0984,-0.3717 3.138,0.1789 4.7579,0.8462 6.29,2.5912 1.6966,1.9323 1.9595,3.5126 1.9595,11.7774 v 7.3717 h -2.213 -2.2129 v -1.1044 -1.1043 l -1.4298,1.0914 c -1.7539,1.3387 -4.1748,1.8417 -6.8203,1.4169 z m 5.7929,-4.6045 c 1.2228,-0.6323 1.9281,-1.8497 1.9577,-3.3793 l 0.025,-1.3086 -1.5089,-0.2811 c -4.5927,-0.8555 -8.0562,1.4061 -6.5276,4.2623 0.7936,1.4828 3.8604,1.8408 6.0535,0.7067 z m 48.0854,4.3726 c -2.1308,-0.7632 -3.749,-2.0227 -4.8701,-3.7905 -1.5447,-2.4357 -1.9611,-4.1852 -1.8113,-7.6094 0.1661,-3.7958 1.0871,-5.9569 3.4402,-8.0726 2.052,-1.8449 4.0483,-2.5112 7.0668,-2.3587 1.9222,0.097 2.5705,0.283 3.9278,1.1267 l 1.6255,1.0105 v -5.6773 -5.6773 h 2.5291 2.529 v 15.4904 15.4906 h -2.371 -2.371 v -1.1657 -1.1656 l -0.8693,0.8134 c -2.1299,1.9927 -5.8318,2.6578 -8.8257,1.5855 z m 6.9771,-4.7545 c 1.4978,-0.8641 2.2278,-2.6604 2.3529,-5.7898 0.1885,-4.715 -1.3805,-6.9069 -4.9459,-6.9095 -3.676,0 -5.7537,2.4868 -5.7537,6.8939 0,3.4006 1.5237,5.7481 4.1485,6.3915 1.3465,0.3301 3.0136,0.097 4.1982,-0.5861 z m -91.4086,4.3801 c -0.7379,-0.3349 -1.6833,-0.9507 -2.101,-1.3684 l -0.7595,-0.7595 -0.1946,1.2173 -0.1947,1.2174 h -2.3673 -2.3672 v -15.4906 -15.4904 h 2.529 2.5291 v 5.8504 5.8504 l 1.2494,-0.905 c 1.723,-1.2481 3.7094,-1.7428 6.2627,-1.5595 3.5659,0.256 6.2264,2.0229 7.8375,5.2052 0.8703,1.7189 0.9312,2.0773 0.9312,5.4748 0,3.3205 -0.077,3.7999 -0.8858,5.5323 -1.8354,3.9298 -4.7078,5.845 -8.7562,5.8385 -1.659,0 -2.7739,-0.1868 -3.7126,-0.6129 z m 5.318,-4.5218 c 3.0673,-2.067 3.9208,-6.8728 1.8234,-10.2664 -1.3051,-2.1118 -4.8552,-2.9554 -7.2273,-1.7175 -3.4545,1.8028 -3.627,10.0042 -0.2537,12.0609 1.5043,0.9171 4.2376,0.8799 5.6576,-0.077 z m 65.9759,4.669 c -1.1237,-0.6321 -1.5096,-1.4004 -1.5096,-3.0053 0,-1.026 0.2002,-1.5098 0.9241,-2.2337 0.7239,-0.724 1.2077,-0.9241 2.2337,-0.9241 1.6379,0 2.3945,0.3966 3.0035,1.5743 0.7309,1.4134 0.598,2.7067 -0.3919,3.8145 -1.0546,1.1802 -2.9317,1.5214 -4.2598,0.7743 z m 38.007,0.1964 c -2.8351,-0.9241 -5.2298,-3.046 -6.4196,-5.6885 -0.907,-2.0144 -1.1211,-6.8525 -0.4114,-9.2941 0.7313,-2.5156 2.5596,-4.6825 4.9646,-5.8843 1.6877,-0.8433 2.3118,-0.9831 4.3896,-0.9831 2.9497,0 4.874,0.6126 6.6204,2.1075 2.2589,1.9335 3.5385,5.4962 3.2455,9.0362 l -0.098,1.1855 h -7.2914 -7.2915 l 0.2044,1.0222 c 0.3322,1.6607 1.6034,3.2659 3.1975,4.0376 1.2291,0.595 1.8367,0.6867 3.7354,0.5638 1.3176,-0.085 2.8915,-0.4234 3.7567,-0.8071 l 1.4892,-0.6602 0.8074,1.7636 c 0.444,0.9699 0.7626,1.8082 0.708,1.8629 -0.055,0.055 -0.9458,0.4855 -1.9804,0.9575 -1.6199,0.7391 -2.3638,0.8707 -5.3585,0.9481 -1.9126,0.05 -3.8331,-0.026 -4.2678,-0.1676 z m 7.9033,-13.4826 c 0,-2.4088 -1.9116,-4.2863 -4.5903,-4.5084 -2.8826,-0.2391 -4.9698,1.3722 -5.427,4.1894 l -0.1816,1.1194 h 5.0994 5.0995 z m -100.5302,2.6972 v -10.7485 h 2.6872 2.6871 v 10.7485 10.7486 h -2.6871 -2.6872 z m 30.981,-0.014 v -10.7623 l 2.292,0.093 2.292,0.093 0.098,1.3494 0.098,1.3494 1.0019,-1.0019 c 1.5085,-1.5085 3.211,-2.1561 5.6891,-2.1642 3.37,-0.011 5.4847,1.1853 6.9737,3.9447 0.6412,1.1884 0.6883,1.7648 0.7805,9.5631 l 0.098,8.2984 h -2.5482 -2.5482 v -7.0131 c 0,-6.4108 -0.055,-7.1275 -0.6443,-8.3442 -0.7939,-1.64 -1.9187,-2.1679 -4.1607,-1.9525 -1.368,0.1315 -1.8044,0.3406 -2.6604,1.2746 -0.5632,0.6145 -1.1758,1.6642 -1.3614,2.3327 -0.1865,0.6715 -0.3383,4.0091 -0.3392,7.4589 v 6.2436 h -2.5291 -2.5291 z m 80.5067,6.9014 c -0.8047,-2.1363 -2.6564,-6.9837 -4.115,-10.7719 l -2.6518,-6.8876 2.7255,0.091 2.7256,0.091 2.7116,7.3481 c 1.4914,4.0415 2.7788,7.4153 2.8609,7.4974 0.082,0.082 1.4085,-3.2602 2.9477,-7.4272 l 2.7985,-7.5763 h 2.4471 2.4472 l -4.0336,10.6695 -4.0336,10.6694 -2.6834,0.091 -2.6835,0.091 z m -110.1004,-21.0925 c -0.3672,-0.1564 -0.9854,-0.6875 -1.3737,-1.1801 -0.5568,-0.7064 -0.6704,-1.163 -0.5374,-2.1598 0.2294,-1.7196 1.3767,-2.6876 3.1855,-2.6876 2.3287,0 3.7795,2.1418 2.8909,4.2677 -0.2181,0.5217 -0.6192,1.1332 -0.8915,1.359 -0.6515,0.5403 -2.4343,0.7586 -3.2738,0.4008 z"
         id="path38" /></g></g></svg>
